<svg xmlns="http://www.w3.org/2000/svg" xmlns:xlink="http://www.w3.org/1999/xlink" width="500" zoomAndPan="magnify" viewBox="0 0 375 374.999991" height="500" preserveAspectRatio="xMidYMid meet" version="1.0"><defs><clipPath id="a06f7c5fbf"><path d="M 197 10.113281 L 365 10.113281 L 365 178 L 197 178 Z M 197 10.113281 " clip-rule="nonzero"/></clipPath><clipPath id="b330deddc0"><path d="M 192.34375 0 L 374.066406 0 L 374.066406 181.722656 L 192.34375 181.722656 Z M 192.34375 0 " clip-rule="nonzero"/></clipPath><clipPath id="76c27a41aa"><path d="M 283.203125 0 C 233.023438 0 192.34375 40.679688 192.34375 90.859375 C 192.34375 141.042969 233.023438 181.722656 283.203125 181.722656 C 333.386719 181.722656 374.066406 141.042969 374.066406 90.859375 C 374.066406 40.679688 333.386719 0 283.203125 0 Z M 283.203125 0 " clip-rule="nonzero"/></clipPath><clipPath id="3a85300632"><path d="M 199.011719 6.667969 L 367.398438 6.667969 L 367.398438 175.054688 L 199.011719 175.054688 Z M 199.011719 6.667969 " clip-rule="nonzero"/></clipPath><clipPath id="4f3e829f58"><path d="M 283.203125 6.667969 C 236.707031 6.667969 199.011719 44.363281 199.011719 90.859375 C 199.011719 137.359375 236.707031 175.054688 283.203125 175.054688 C 329.703125 175.054688 367.398438 137.359375 367.398438 90.859375 C 367.398438 44.363281 329.703125 6.667969 283.203125 6.667969 Z M 283.203125 6.667969 " clip-rule="nonzero"/></clipPath><clipPath id="8b0c1eef61"><path d="M 236 44 L 330.355469 44 L 330.355469 138 L 236 138 Z M 236 44 " clip-rule="nonzero"/></clipPath></defs><path fill="#0866ff" d="M 319.265625 336.980469 C 319.265625 338.226562 319.203125 339.46875 319.082031 340.707031 C 318.960938 341.945312 318.777344 343.175781 318.535156 344.398438 C 318.292969 345.617188 317.988281 346.824219 317.628906 348.015625 C 317.265625 349.207031 316.847656 350.378906 316.371094 351.527344 C 315.894531 352.675781 315.363281 353.800781 314.777344 354.898438 C 314.191406 355.996094 313.550781 357.0625 312.859375 358.097656 C 312.167969 359.132812 311.425781 360.132812 310.636719 361.09375 C 309.847656 362.054688 309.011719 362.976562 308.132812 363.859375 C 307.253906 364.738281 306.332031 365.574219 305.371094 366.363281 C 304.40625 367.152344 303.410156 367.894531 302.375 368.585938 C 301.339844 369.277344 300.273438 369.914062 299.175781 370.503906 C 298.078125 371.089844 296.953125 371.621094 295.800781 372.097656 C 294.652344 372.574219 293.480469 372.992188 292.289062 373.351562 C 291.097656 373.714844 289.894531 374.015625 288.671875 374.257812 C 287.453125 374.503906 286.222656 374.683594 284.984375 374.808594 C 283.746094 374.929688 282.503906 374.988281 281.257812 374.988281 C 280.011719 374.988281 278.769531 374.929688 277.53125 374.808594 C 276.292969 374.683594 275.0625 374.503906 273.84375 374.257812 C 272.621094 374.015625 271.414062 373.714844 270.222656 373.351562 C 269.035156 372.992188 267.863281 372.574219 266.710938 372.097656 C 265.5625 371.621094 264.4375 371.089844 263.339844 370.503906 C 262.242188 369.914062 261.175781 369.277344 260.140625 368.585938 C 259.105469 367.894531 258.109375 367.152344 257.144531 366.363281 C 256.183594 365.574219 255.261719 364.738281 254.382812 363.859375 C 253.5 362.976562 252.667969 362.054688 251.878906 361.09375 C 251.085938 360.132812 250.347656 359.132812 249.65625 358.097656 C 248.964844 357.0625 248.324219 355.996094 247.738281 354.898438 C 247.152344 353.800781 246.621094 352.675781 246.144531 351.527344 C 245.667969 350.378906 245.246094 349.207031 244.886719 348.015625 C 244.523438 346.824219 244.222656 345.617188 243.980469 344.398438 C 243.738281 343.175781 243.554688 341.945312 243.433594 340.707031 C 243.3125 339.46875 243.25 338.226562 243.25 336.980469 C 243.25 335.738281 243.3125 334.496094 243.433594 333.257812 C 243.554688 332.019531 243.738281 330.789062 243.980469 329.566406 C 244.222656 328.347656 244.523438 327.140625 244.886719 325.949219 C 245.246094 324.757812 245.667969 323.585938 246.144531 322.4375 C 246.621094 321.289062 247.152344 320.164062 247.738281 319.066406 C 248.324219 317.96875 248.964844 316.902344 249.65625 315.867188 C 250.347656 314.832031 251.085938 313.832031 251.878906 312.871094 C 252.667969 311.90625 253.5 310.988281 254.382812 310.105469 C 255.261719 309.226562 256.183594 308.390625 257.144531 307.601562 C 258.109375 306.8125 259.105469 306.070312 260.140625 305.378906 C 261.175781 304.6875 262.242188 304.050781 263.339844 303.460938 C 264.4375 302.875 265.5625 302.34375 266.710938 301.867188 C 267.863281 301.390625 269.035156 300.972656 270.222656 300.609375 C 271.414062 300.25 272.621094 299.949219 273.84375 299.703125 C 275.0625 299.460938 276.292969 299.28125 277.53125 299.15625 C 278.769531 299.035156 280.011719 298.972656 281.257812 298.972656 C 282.503906 298.972656 283.746094 299.035156 284.984375 299.15625 C 286.222656 299.28125 287.453125 299.460938 288.671875 299.703125 C 289.894531 299.949219 291.097656 300.25 292.289062 300.609375 C 293.480469 300.972656 294.652344 301.390625 295.800781 301.867188 C 296.953125 302.34375 298.078125 302.875 299.175781 303.460938 C 300.273438 304.050781 301.339844 304.6875 302.375 305.378906 C 303.410156 306.070312 304.40625 306.8125 305.371094 307.601562 C 306.332031 308.390625 307.253906 309.226562 308.132812 310.105469 C 309.011719 310.988281 309.847656 311.90625 310.636719 312.871094 C 311.425781 313.832031 312.167969 314.832031 312.859375 315.867188 C 313.550781 316.902344 314.191406 317.96875 314.777344 319.066406 C 315.363281 320.164062 315.894531 321.289062 316.371094 322.4375 C 316.847656 323.585938 317.265625 324.757812 317.628906 325.949219 C 317.988281 327.140625 318.292969 328.347656 318.535156 329.566406 C 318.777344 330.789062 318.960938 332.019531 319.082031 333.257812 C 319.203125 334.496094 319.265625 335.738281 319.265625 336.980469 Z M 319.265625 336.980469 " fill-opacity="1" fill-rule="nonzero"/><path fill="#0866ff" d="M 167.234375 336.980469 C 167.234375 338.226562 167.171875 339.46875 167.050781 340.707031 C 166.929688 341.945312 166.746094 343.175781 166.503906 344.398438 C 166.261719 345.617188 165.957031 346.824219 165.597656 348.015625 C 165.234375 349.207031 164.816406 350.378906 164.339844 351.527344 C 163.863281 352.675781 163.332031 353.800781 162.746094 354.898438 C 162.160156 355.996094 161.519531 357.0625 160.828125 358.097656 C 160.136719 359.132812 159.398438 360.132812 158.605469 361.09375 C 157.816406 362.054688 156.980469 362.976562 156.101562 363.859375 C 155.222656 364.738281 154.300781 365.574219 153.339844 366.363281 C 152.375 367.152344 151.378906 367.894531 150.34375 368.585938 C 149.308594 369.277344 148.242188 369.914062 147.144531 370.503906 C 146.046875 371.089844 144.921875 371.621094 143.769531 372.097656 C 142.621094 372.574219 141.449219 372.992188 140.257812 373.351562 C 139.066406 373.714844 137.863281 374.015625 136.640625 374.257812 C 135.421875 374.503906 134.191406 374.683594 132.953125 374.808594 C 131.714844 374.929688 130.472656 374.988281 129.226562 374.988281 C 127.980469 374.988281 126.738281 374.929688 125.5 374.808594 C 124.261719 374.683594 123.03125 374.503906 121.8125 374.257812 C 120.589844 374.015625 119.382812 373.714844 118.195312 373.351562 C 117.003906 372.992188 115.832031 372.574219 114.679688 372.097656 C 113.53125 371.621094 112.40625 371.089844 111.308594 370.503906 C 110.210938 369.914062 109.144531 369.277344 108.109375 368.585938 C 107.074219 367.894531 106.078125 367.152344 105.113281 366.363281 C 104.152344 365.574219 103.230469 364.738281 102.351562 363.859375 C 101.46875 362.976562 100.636719 362.054688 99.847656 361.09375 C 99.054688 360.132812 98.316406 359.132812 97.625 358.097656 C 96.933594 357.0625 96.292969 355.996094 95.707031 354.898438 C 95.121094 353.800781 94.589844 352.675781 94.113281 351.527344 C 93.636719 350.378906 93.214844 349.207031 92.855469 348.015625 C 92.492188 346.824219 92.191406 345.617188 91.949219 344.398438 C 91.707031 343.175781 91.523438 341.945312 91.402344 340.707031 C 91.28125 339.46875 91.21875 338.226562 91.21875 336.980469 C 91.21875 335.738281 91.28125 334.496094 91.402344 333.257812 C 91.523438 332.019531 91.707031 330.789062 91.949219 329.566406 C 92.191406 328.347656 92.492188 327.140625 92.855469 325.949219 C 93.214844 324.757812 93.636719 323.585938 94.113281 322.4375 C 94.589844 321.289062 95.121094 320.164062 95.707031 319.066406 C 96.292969 317.96875 96.933594 316.902344 97.625 315.867188 C 98.316406 314.832031 99.054688 313.832031 99.847656 312.871094 C 100.636719 311.90625 101.46875 310.988281 102.351562 310.105469 C 103.230469 309.226562 104.152344 308.390625 105.113281 307.601562 C 106.078125 306.8125 107.074219 306.070312 108.109375 305.378906 C 109.144531 304.6875 110.210938 304.050781 111.308594 303.460938 C 112.40625 302.875 113.53125 302.34375 114.679688 301.867188 C 115.832031 301.390625 117.003906 300.972656 118.195312 300.609375 C 119.382812 300.25 120.589844 299.949219 121.8125 299.703125 C 123.03125 299.460938 124.261719 299.28125 125.5 299.15625 C 126.738281 299.035156 127.980469 298.972656 129.226562 298.972656 C 130.472656 298.972656 131.714844 299.035156 132.953125 299.15625 C 134.191406 299.28125 135.421875 299.460938 136.640625 299.703125 C 137.863281 299.949219 139.066406 300.25 140.257812 300.609375 C 141.449219 300.972656 142.621094 301.390625 143.769531 301.867188 C 144.921875 302.34375 146.046875 302.875 147.144531 303.460938 C 148.242188 304.050781 149.308594 304.6875 150.34375 305.378906 C 151.378906 306.070312 152.375 306.8125 153.339844 307.601562 C 154.300781 308.390625 155.222656 309.226562 156.101562 310.105469 C 156.980469 310.988281 157.816406 311.90625 158.605469 312.871094 C 159.398438 313.832031 160.136719 314.832031 160.828125 315.867188 C 161.519531 316.902344 162.160156 317.96875 162.746094 319.066406 C 163.332031 320.164062 163.863281 321.289062 164.339844 322.4375 C 164.816406 323.585938 165.234375 324.757812 165.597656 325.949219 C 165.957031 327.140625 166.261719 328.347656 166.503906 329.566406 C 166.746094 330.789062 166.929688 332.019531 167.050781 333.257812 C 167.171875 334.496094 167.234375 335.738281 167.234375 336.980469 Z M 167.234375 336.980469 " fill-opacity="1" fill-rule="nonzero"/><path fill="#0866ff" d="M 311.664062 283.769531 L 136.203125 283.769531 C 110.921875 283.769531 88.984375 265.785156 84.027344 241.003906 L 46.976562 55.722656 L 7.601562 55.722656 C 3.40625 55.722656 0 52.320312 0 48.121094 C 0 43.925781 3.40625 40.519531 7.601562 40.519531 L 53.210938 40.519531 C 56.828125 40.519531 59.945312 43.074219 60.660156 46.632812 L 98.941406 238.011719 C 102.484375 255.722656 118.144531 268.566406 136.203125 268.566406 L 311.664062 268.566406 C 315.859375 268.566406 319.265625 271.972656 319.265625 276.167969 C 319.265625 280.367188 315.859375 283.769531 311.664062 283.769531 Z M 311.664062 283.769531 " fill-opacity="1" fill-rule="nonzero"/><path fill="#0866ff" d="M 334.042969 181.589844 C 331.777344 180.253906 328.996094 180.160156 326.667969 181.394531 C 312.453125 188.796875 297.175781 192.550781 281.257812 192.550781 C 226.769531 192.550781 182.5 151.351562 182.574219 95.617188 C 182.574219 95.511719 182.648438 94.050781 182.664062 93.960938 C 182.726562 91.863281 181.921875 89.839844 180.445312 88.367188 C 178.957031 86.875 176.902344 86.085938 174.835938 86.128906 L 68.1875 86.128906 C 65.964844 86.191406 63.882812 87.242188 62.5 88.972656 C 61.101562 90.691406 60.523438 92.941406 60.949219 95.132812 L 83.753906 216.757812 C 84.421875 220.359375 87.554688 222.957031 91.21875 222.957031 L 300.019531 222.957031 C 319.144531 222.957031 335.367188 208.652344 337.722656 189.664062 C 337.765625 189.285156 337.765625 188.324219 337.765625 187.945312 C 337.707031 185.332031 336.292969 182.929688 334.042969 181.589844 Z M 334.042969 181.589844 " fill-opacity="1" fill-rule="nonzero"/><g clip-path="url(#a06f7c5fbf)"><path fill="#0866ff" d="M 281.257812 10.113281 C 235.148438 10.113281 197.640625 47.621094 197.640625 93.730469 C 197.640625 139.84375 235.148438 177.347656 281.257812 177.347656 C 327.367188 177.347656 364.875 139.84375 364.875 93.730469 C 364.875 47.621094 327.367188 10.113281 281.257812 10.113281 Z M 332.25 68.707031 L 271.4375 129.519531 C 269.945312 130.996094 268 131.738281 266.054688 131.738281 C 264.109375 131.738281 262.164062 130.996094 260.671875 129.519531 L 230.265625 99.113281 C 227.300781 96.148438 227.300781 91.332031 230.265625 88.367188 C 233.230469 85.402344 238.050781 85.402344 241.015625 88.367188 L 266.054688 113.390625 L 321.484375 57.960938 C 324.449219 54.996094 329.269531 54.996094 332.234375 57.960938 C 335.199219 60.925781 335.214844 65.726562 332.25 68.707031 Z M 332.25 68.707031 " fill-opacity="1" fill-rule="nonzero"/></g><g clip-path="url(#b330deddc0)"><g clip-path="url(#76c27a41aa)"><path fill="#ff0000" d="M 192.34375 0 L 374.066406 0 L 374.066406 181.722656 L 192.34375 181.722656 Z M 192.34375 0 " fill-opacity="1" fill-rule="nonzero"/></g></g><g clip-path="url(#3a85300632)"><g clip-path="url(#4f3e829f58)"><path fill="#ffffff" d="M 199.011719 6.667969 L 367.398438 6.667969 L 367.398438 175.054688 L 199.011719 175.054688 Z M 199.011719 6.667969 " fill-opacity="1" fill-rule="nonzero"/></g></g><g clip-path="url(#8b0c1eef61)"><path fill="#ff0000" d="M 240.085938 137.859375 C 239.136719 137.859375 238.1875 137.496094 237.460938 136.773438 C 236.015625 135.324219 236.015625 132.976562 237.460938 131.527344 L 323.679688 45.3125 C 325.128906 43.863281 327.476562 43.863281 328.925781 45.3125 C 330.371094 46.757812 330.371094 49.105469 328.925781 50.554688 L 242.707031 136.773438 C 241.984375 137.496094 241.035156 137.859375 240.085938 137.859375 " fill-opacity="1" fill-rule="nonzero"/><path fill="#ff0000" d="M 326.300781 137.859375 C 325.355469 137.859375 324.402344 137.496094 323.679688 136.773438 L 237.460938 50.554688 C 236.015625 49.105469 236.015625 46.757812 237.460938 45.3125 C 238.910156 43.863281 241.257812 43.863281 242.707031 45.3125 L 328.925781 131.527344 C 330.371094 132.976562 330.371094 135.324219 328.925781 136.773438 C 328.199219 137.496094 327.25 137.859375 326.300781 137.859375 " fill-opacity="1" fill-rule="nonzero"/></g></svg>