<svg xmlns="http://www.w3.org/2000/svg" xmlns:xlink="http://www.w3.org/1999/xlink" width="500" zoomAndPan="magnify" viewBox="0 0 375 374.999991" height="500" preserveAspectRatio="xMidYMid meet" version="1.0"><defs><clipPath id="3065c2c5e6"><path d="M 29.53125 256 L 345.28125 256 L 345.28125 375 L 29.53125 375 Z M 29.53125 256 " clip-rule="nonzero"/></clipPath></defs><path fill="#b6dcfe" d="M 34.644531 370.066406 C 37.238281 309.769531 87.066406 261.511719 147.957031 261.511719 L 226.855469 261.511719 C 287.746094 261.511719 337.582031 309.769531 340.167969 370.066406 Z M 34.644531 370.066406 " fill-opacity="1" fill-rule="nonzero"/><g clip-path="url(#3065c2c5e6)"><path fill="#4788c7" d="M 226.855469 266.449219 C 283.359375 266.449219 329.902344 309.878906 334.902344 365.132812 L 39.910156 365.132812 C 44.910156 309.878906 91.453125 266.449219 147.957031 266.449219 L 226.855469 266.449219 M 226.855469 256.578125 L 147.957031 256.578125 C 82.597656 256.578125 29.605469 309.601562 29.605469 375 L 345.207031 375 C 345.207031 309.601562 292.214844 256.578125 226.855469 256.578125 Z M 226.855469 256.578125 " fill-opacity="1" fill-rule="nonzero"/></g><path fill="#ffffff" d="M 187.40625 291.117188 C 155.660156 291.117188 144.910156 270.386719 143.023438 266.09375 L 143.023438 212.171875 L 231.789062 212.171875 L 231.789062 266.09375 C 229.933594 270.335938 219.191406 291.117188 187.40625 291.117188 Z M 187.40625 291.117188 " fill-opacity="1" fill-rule="nonzero"/><path fill="#4788c7" d="M 226.855469 217.105469 L 226.855469 265.015625 C 224.480469 269.832031 214.410156 286.183594 187.40625 286.183594 C 160.480469 286.183594 150.363281 269.832031 147.957031 264.996094 L 147.957031 217.105469 L 226.855469 217.105469 M 236.71875 207.238281 L 138.09375 207.238281 L 138.09375 267.058594 C 138.09375 267.058594 148.605469 296.050781 187.40625 296.050781 C 226.207031 296.050781 236.71875 267.058594 236.71875 267.058594 Z M 236.71875 207.238281 " fill-opacity="1" fill-rule="nonzero"/><path fill="#dff0fe" d="M 257.855469 179.742188 C 245.03125 179.742188 234.617188 169.300781 234.617188 156.484375 C 234.617188 143.664062 245.042969 133.222656 257.855469 133.222656 C 277.214844 133.222656 281.101562 138.53125 281.101562 147.089844 C 281.101562 161.042969 269.609375 179.742188 257.855469 179.742188 Z M 116.957031 179.742188 C 105.203125 179.742188 93.710938 161.042969 93.710938 147.078125 C 93.710938 138.523438 97.609375 133.214844 116.957031 133.214844 C 129.777344 133.214844 140.195312 143.644531 140.195312 156.472656 C 140.195312 169.300781 129.777344 179.742188 116.957031 179.742188 Z M 116.957031 179.742188 " fill-opacity="1" fill-rule="nonzero"/><path fill="#4788c7" d="M 257.855469 138.15625 C 276.167969 138.15625 276.167969 142.90625 276.167969 147.089844 C 276.167969 159.265625 265.902344 174.820312 257.855469 174.820312 C 247.753906 174.820312 239.539062 166.597656 239.539062 156.492188 C 239.539062 146.378906 247.753906 138.15625 257.855469 138.15625 M 116.957031 138.15625 C 127.058594 138.15625 135.273438 146.378906 135.273438 156.484375 C 135.273438 166.589844 127.058594 174.808594 116.957031 174.808594 C 108.910156 174.808594 98.644531 159.265625 98.644531 147.078125 C 98.644531 142.90625 98.644531 138.15625 116.957031 138.15625 M 257.855469 128.289062 C 242.292969 128.289062 229.675781 140.910156 229.675781 156.484375 C 229.675781 172.054688 242.292969 184.675781 257.855469 184.675781 C 273.417969 184.675781 286.03125 162.652344 286.03125 147.078125 C 286.03125 131.515625 273.417969 128.289062 257.855469 128.289062 Z M 116.957031 128.289062 C 101.394531 128.289062 88.78125 131.515625 88.78125 147.089844 C 88.78125 162.660156 101.394531 184.6875 116.957031 184.6875 C 132.519531 184.6875 145.136719 172.066406 145.136719 156.492188 C 145.136719 140.921875 132.519531 128.289062 116.957031 128.289062 Z M 116.957031 128.289062 " fill-opacity="1" fill-rule="nonzero"/><path fill="#ffffff" d="M 187.40625 251.644531 C 181.449219 251.644531 175.847656 249.492188 171.210938 245.425781 L 170.3125 244.636719 L 169.171875 244.34375 C 136.359375 236.011719 113.4375 206.546875 113.4375 172.699219 L 113.4375 80.941406 C 113.4375 62.910156 128.09375 48.246094 146.101562 48.246094 L 228.699219 48.246094 C 246.710938 48.246094 261.375 62.910156 261.375 80.941406 L 261.375 172.699219 C 261.375 206.546875 238.453125 236.011719 205.640625 244.34375 L 204.5 244.636719 L 203.601562 245.425781 C 198.964844 249.492188 193.363281 251.644531 187.40625 251.644531 Z M 187.40625 251.644531 " fill-opacity="1" fill-rule="nonzero"/><path fill="#4788c7" d="M 228.699219 53.179688 C 243.996094 53.179688 256.445312 65.636719 256.445312 80.941406 L 256.445312 172.699219 C 256.445312 204.285156 235.050781 231.78125 204.417969 239.566406 L 202.121094 240.148438 L 200.335938 241.71875 C 197.742188 243.996094 193.402344 246.710938 187.40625 246.710938 C 181.410156 246.710938 177.070312 243.996094 174.476562 241.71875 L 172.691406 240.148438 L 170.394531 239.566406 C 139.761719 231.78125 118.367188 204.285156 118.367188 172.699219 L 118.367188 80.941406 C 118.367188 65.636719 130.816406 53.179688 146.113281 53.179688 L 228.699219 53.179688 M 228.699219 43.3125 L 146.101562 43.3125 C 125.339844 43.3125 108.503906 60.15625 108.503906 80.941406 L 108.503906 172.699219 C 108.503906 209.574219 133.8125 240.453125 167.96875 249.128906 C 173.175781 253.707031 179.929688 256.578125 187.40625 256.578125 C 194.882812 256.578125 201.636719 253.707031 206.84375 249.128906 C 241 240.453125 266.308594 209.574219 266.308594 172.699219 L 266.308594 80.941406 C 266.308594 60.15625 249.472656 43.3125 228.699219 43.3125 Z M 228.699219 43.3125 " fill-opacity="1" fill-rule="nonzero"/><path fill="#b6dcfe" d="M 261.375 162.828125 L 261.375 128.289062 C 261.375 92.40625 231.460938 73.203125 230.179688 72.40625 L 226.253906 69.9375 L 223.542969 73.71875 C 222.703125 74.882812 202.644531 102.207031 159.296875 102.207031 C 147.957031 102.207031 113.4375 102.207031 113.4375 138.15625 L 113.4375 162.828125 L 111.671875 162.828125 C 107.371094 153.136719 93.710938 120.078125 93.710938 91.894531 C 93.710938 39.878906 129.386719 4.933594 182.476562 4.933594 C 220.335938 4.933594 231.707031 30.445312 232.171875 31.53125 L 233.464844 34.519531 L 236.71875 34.539062 C 253.199219 34.539062 281.101562 46.007812 281.101562 88.964844 C 281.101562 114.847656 267.222656 152.050781 262.972656 162.828125 Z M 261.375 162.828125 " fill-opacity="1" fill-rule="nonzero"/><path fill="#4788c7" d="M 182.476562 9.867188 C 216.828125 9.867188 227.230469 32.535156 227.617188 33.40625 L 230.152344 39.472656 L 236.71875 39.472656 C 254.914062 39.472656 276.167969 52.429688 276.167969 88.964844 C 276.167969 104.121094 271.167969 123.484375 266.308594 138.730469 L 266.308594 128.289062 C 266.308594 89.714844 234.175781 69.089844 232.804688 68.21875 L 224.902344 63.257812 L 219.507812 70.875 C 219.320312 71.140625 200.367188 97.261719 159.296875 97.261719 C 125.597656 97.273438 108.503906 111.03125 108.503906 138.15625 L 108.503906 141.257812 C 103.664062 127.222656 98.644531 108.640625 98.644531 91.886719 C 98.644531 42.828125 132.332031 9.867188 182.476562 9.867188 M 182.476562 0 C 125.085938 0 88.78125 39.285156 88.78125 91.886719 C 88.78125 126.730469 108.503906 167.761719 108.503906 167.761719 L 118.367188 167.761719 C 118.367188 167.761719 118.367188 147.738281 118.367188 138.15625 C 118.367188 111.828125 138.332031 107.140625 159.296875 107.140625 C 205.949219 107.140625 227.566406 76.578125 227.566406 76.578125 C 227.566406 76.578125 256.445312 94.726562 256.445312 128.289062 C 256.445312 138.839844 256.445312 167.761719 256.445312 167.761719 L 266.308594 167.761719 C 266.308594 167.761719 286.03125 120.710938 286.03125 88.964844 C 286.03125 44.386719 257.65625 29.605469 236.71875 29.605469 C 236.71875 29.605469 224.359375 0 182.476562 0 Z M 182.476562 0 " fill-opacity="1" fill-rule="nonzero"/></svg>