<svg xmlns="http://www.w3.org/2000/svg" xmlns:xlink="http://www.w3.org/1999/xlink" width="500" zoomAndPan="magnify" viewBox="0 0 375 125.249995" height="167" preserveAspectRatio="xMidYMid meet" version="1.0"><defs><g/><clipPath id="cf5bb621f5"><path d="M 71 86 L 95 86 L 95 107.84375 L 71 107.84375 Z M 71 86 " clip-rule="nonzero"/></clipPath><clipPath id="62e3778838"><path d="M 27 86 L 50 86 L 50 107.84375 L 27 107.84375 Z M 27 86 " clip-rule="nonzero"/></clipPath><clipPath id="7f48d8c503"><path d="M 1.117188 10 L 95 10 L 95 82 L 1.117188 82 Z M 1.117188 10 " clip-rule="nonzero"/></clipPath><clipPath id="1c9e05dd5d"><path d="M 58 1.980469 L 106.980469 1.980469 L 106.980469 51 L 58 51 Z M 58 1.980469 " clip-rule="nonzero"/></clipPath><clipPath id="953702a8be"><path d="M 56.363281 0.0390625 L 109.253906 0.0390625 L 109.253906 52.929688 L 56.363281 52.929688 Z M 56.363281 0.0390625 " clip-rule="nonzero"/></clipPath><clipPath id="26e61ef6ec"><path d="M 82.808594 0.0390625 C 68.203125 0.0390625 56.363281 11.878906 56.363281 26.484375 C 56.363281 41.089844 68.203125 52.929688 82.808594 52.929688 C 97.414062 52.929688 109.253906 41.089844 109.253906 26.484375 C 109.253906 11.878906 97.414062 0.0390625 82.808594 0.0390625 Z M 82.808594 0.0390625 " clip-rule="nonzero"/></clipPath><clipPath id="4a85bf8932"><path d="M 58.304688 1.980469 L 107.3125 1.980469 L 107.3125 50.988281 L 58.304688 50.988281 Z M 58.304688 1.980469 " clip-rule="nonzero"/></clipPath><clipPath id="9f7194652b"><path d="M 82.808594 1.980469 C 69.277344 1.980469 58.304688 12.949219 58.304688 26.484375 C 58.304688 40.015625 69.277344 50.988281 82.808594 50.988281 C 96.34375 50.988281 107.3125 40.015625 107.3125 26.484375 C 107.3125 12.949219 96.34375 1.980469 82.808594 1.980469 Z M 82.808594 1.980469 " clip-rule="nonzero"/></clipPath><clipPath id="5c279fc102"><path d="M 68.375 15.460938 L 97.453125 15.460938 L 97.453125 37.824219 L 68.375 37.824219 Z M 68.375 15.460938 " clip-rule="nonzero"/></clipPath></defs><g clip-path="url(#cf5bb621f5)"><path fill="#ffffff" d="M 94.035156 97.109375 C 94.035156 97.835938 93.964844 98.554688 93.820312 99.269531 C 93.679688 99.980469 93.46875 100.671875 93.191406 101.34375 C 92.914062 102.015625 92.574219 102.652344 92.171875 103.253906 C 91.765625 103.859375 91.308594 104.417969 90.792969 104.929688 C 90.28125 105.445312 89.722656 105.902344 89.117188 106.308594 C 88.515625 106.710938 87.875 107.050781 87.207031 107.328125 C 86.535156 107.605469 85.84375 107.816406 85.128906 107.957031 C 84.417969 108.101562 83.699219 108.171875 82.972656 108.171875 C 82.246094 108.171875 81.527344 108.101562 80.816406 107.957031 C 80.101562 107.816406 79.410156 107.605469 78.738281 107.328125 C 78.070312 107.050781 77.429688 106.710938 76.828125 106.308594 C 76.222656 105.902344 75.664062 105.445312 75.152344 104.929688 C 74.636719 104.417969 74.179688 103.859375 73.773438 103.253906 C 73.371094 102.652344 73.03125 102.015625 72.753906 101.34375 C 72.476562 100.671875 72.265625 99.980469 72.125 99.269531 C 71.980469 98.554688 71.910156 97.835938 71.910156 97.109375 C 71.910156 96.382812 71.980469 95.664062 72.125 94.953125 C 72.265625 94.238281 72.476562 93.546875 72.753906 92.875 C 73.03125 92.207031 73.371094 91.566406 73.773438 90.964844 C 74.179688 90.359375 74.636719 89.800781 75.152344 89.289062 C 75.664062 88.773438 76.222656 88.316406 76.828125 87.914062 C 77.429688 87.507812 78.070312 87.167969 78.738281 86.890625 C 79.410156 86.613281 80.101562 86.402344 80.816406 86.261719 C 81.527344 86.117188 82.246094 86.046875 82.972656 86.046875 C 83.699219 86.046875 84.417969 86.117188 85.128906 86.261719 C 85.84375 86.402344 86.535156 86.613281 87.207031 86.890625 C 87.875 87.167969 88.515625 87.507812 89.117188 87.914062 C 89.722656 88.316406 90.28125 88.773438 90.792969 89.289062 C 91.308594 89.800781 91.765625 90.359375 92.171875 90.964844 C 92.574219 91.566406 92.914062 92.207031 93.191406 92.875 C 93.46875 93.546875 93.679688 94.238281 93.820312 94.953125 C 93.964844 95.664062 94.035156 96.382812 94.035156 97.109375 Z M 94.035156 97.109375 " fill-opacity="1" fill-rule="nonzero"/></g><g clip-path="url(#62e3778838)"><path fill="#ffffff" d="M 49.789062 97.109375 C 49.789062 97.835938 49.714844 98.554688 49.574219 99.269531 C 49.433594 99.980469 49.222656 100.671875 48.945312 101.34375 C 48.667969 102.015625 48.328125 102.652344 47.921875 103.253906 C 47.519531 103.859375 47.0625 104.417969 46.546875 104.929688 C 46.035156 105.445312 45.476562 105.902344 44.871094 106.308594 C 44.265625 106.710938 43.628906 107.050781 42.957031 107.328125 C 42.289062 107.605469 41.597656 107.816406 40.882812 107.957031 C 40.171875 108.101562 39.453125 108.171875 38.726562 108.171875 C 38 108.171875 37.28125 108.101562 36.566406 107.957031 C 35.855469 107.816406 35.164062 107.605469 34.492188 107.328125 C 33.820312 107.050781 33.183594 106.710938 32.582031 106.308594 C 31.976562 105.902344 31.417969 105.445312 30.902344 104.929688 C 30.390625 104.417969 29.933594 103.859375 29.527344 103.253906 C 29.125 102.652344 28.785156 102.015625 28.507812 101.34375 C 28.226562 100.671875 28.019531 99.980469 27.875 99.269531 C 27.734375 98.554688 27.664062 97.835938 27.664062 97.109375 C 27.664062 96.382812 27.734375 95.664062 27.875 94.953125 C 28.019531 94.238281 28.226562 93.546875 28.507812 92.875 C 28.785156 92.207031 29.125 91.566406 29.527344 90.964844 C 29.933594 90.359375 30.390625 89.800781 30.902344 89.289062 C 31.417969 88.773438 31.976562 88.316406 32.582031 87.914062 C 33.183594 87.507812 33.820312 87.167969 34.492188 86.890625 C 35.164062 86.613281 35.855469 86.402344 36.566406 86.261719 C 37.28125 86.117188 38 86.046875 38.726562 86.046875 C 39.453125 86.046875 40.171875 86.117188 40.882812 86.261719 C 41.597656 86.402344 42.289062 86.613281 42.957031 86.890625 C 43.628906 87.167969 44.265625 87.507812 44.871094 87.914062 C 45.476562 88.316406 46.035156 88.773438 46.546875 89.289062 C 47.0625 89.800781 47.519531 90.359375 47.921875 90.964844 C 48.328125 91.566406 48.667969 92.207031 48.945312 92.875 C 49.222656 93.546875 49.433594 94.238281 49.574219 94.953125 C 49.714844 95.664062 49.789062 96.382812 49.789062 97.109375 Z M 49.789062 97.109375 " fill-opacity="1" fill-rule="nonzero"/></g><g clip-path="url(#7f48d8c503)"><path fill="#ffffff" d="M 91.820312 81.625 L 40.757812 81.625 C 33.398438 81.625 27.015625 76.390625 25.570312 69.175781 L 14.789062 15.253906 L 3.328125 15.253906 C 2.105469 15.253906 1.117188 14.261719 1.117188 13.039062 C 1.117188 11.820312 2.105469 10.828125 3.328125 10.828125 L 16.601562 10.828125 C 17.65625 10.828125 18.5625 11.570312 18.769531 12.605469 L 29.910156 68.304688 C 30.941406 73.460938 35.5 77.199219 40.757812 77.199219 L 91.820312 77.199219 C 93.042969 77.199219 94.035156 78.191406 94.035156 79.410156 C 94.035156 80.632812 93.042969 81.625 91.820312 81.625 Z M 91.820312 81.625 " fill-opacity="1" fill-rule="nonzero"/></g><path fill="#ffffff" d="M 98.335938 51.886719 C 97.675781 51.496094 96.867188 51.46875 96.1875 51.828125 C 92.050781 53.984375 87.605469 55.074219 82.972656 55.074219 C 67.113281 55.074219 54.230469 43.085938 54.253906 26.863281 C 54.253906 26.832031 54.273438 26.40625 54.277344 26.382812 C 54.296875 25.769531 54.0625 25.183594 53.632812 24.753906 C 53.199219 24.320312 52.601562 24.089844 52 24.101562 L 20.960938 24.101562 C 20.316406 24.121094 19.707031 24.425781 19.304688 24.929688 C 18.898438 25.429688 18.730469 26.085938 18.855469 26.722656 L 25.492188 62.121094 C 25.6875 63.167969 26.597656 63.925781 27.664062 63.925781 L 88.433594 63.925781 C 94 63.925781 98.71875 59.761719 99.40625 54.234375 C 99.417969 54.125 99.417969 53.84375 99.417969 53.734375 C 99.402344 52.972656 98.988281 52.273438 98.335938 51.886719 Z M 98.335938 51.886719 " fill-opacity="1" fill-rule="nonzero"/><g clip-path="url(#1c9e05dd5d)"><path fill="#ffffff" d="M 82.972656 1.980469 C 69.550781 1.980469 58.636719 12.894531 58.636719 26.316406 C 58.636719 39.734375 69.550781 50.652344 82.972656 50.652344 C 96.394531 50.652344 107.308594 39.734375 107.308594 26.316406 C 107.308594 12.894531 96.394531 1.980469 82.972656 1.980469 Z M 97.8125 19.03125 L 80.113281 36.730469 C 79.679688 37.160156 79.113281 37.375 78.546875 37.375 C 77.980469 37.375 77.414062 37.160156 76.980469 36.730469 L 68.132812 27.882812 C 67.269531 27.019531 67.269531 25.617188 68.132812 24.753906 C 68.996094 23.890625 70.398438 23.890625 71.261719 24.753906 L 78.546875 32.035156 L 94.679688 15.902344 C 95.542969 15.039062 96.945312 15.039062 97.808594 15.902344 C 98.671875 16.765625 98.675781 18.164062 97.8125 19.03125 Z M 97.8125 19.03125 " fill-opacity="1" fill-rule="nonzero"/></g><g clip-path="url(#953702a8be)"><g clip-path="url(#26e61ef6ec)"><path fill="#ffffff" d="M 56.363281 0.0390625 L 109.253906 0.0390625 L 109.253906 52.929688 L 56.363281 52.929688 Z M 56.363281 0.0390625 " fill-opacity="1" fill-rule="nonzero"/></g></g><g clip-path="url(#4a85bf8932)"><g clip-path="url(#9f7194652b)"><path fill="#0866ff" d="M 58.304688 1.980469 L 107.3125 1.980469 L 107.3125 50.988281 L 58.304688 50.988281 Z M 58.304688 1.980469 " fill-opacity="1" fill-rule="nonzero"/></g></g><g clip-path="url(#5c279fc102)"><path fill="#ffffff" d="M 95.363281 15.472656 C 94.910156 15.484375 94.523438 15.652344 94.210938 15.980469 L 76.933594 33.253906 L 71.410156 27.726562 C 71.253906 27.5625 71.070312 27.4375 70.863281 27.347656 C 70.65625 27.257812 70.441406 27.214844 70.214844 27.210938 C 69.988281 27.207031 69.773438 27.25 69.5625 27.335938 C 69.355469 27.421875 69.171875 27.542969 69.011719 27.703125 C 68.851562 27.863281 68.730469 28.046875 68.644531 28.253906 C 68.558594 28.464844 68.515625 28.679688 68.519531 28.90625 C 68.523438 29.132812 68.566406 29.347656 68.65625 29.554688 C 68.746094 29.761719 68.871094 29.945312 69.035156 30.101562 L 75.75 36.8125 C 75.90625 36.96875 76.085938 37.089844 76.292969 37.175781 C 76.5 37.261719 76.710938 37.304688 76.933594 37.304688 C 77.15625 37.304688 77.371094 37.261719 77.578125 37.175781 C 77.78125 37.089844 77.964844 36.96875 78.121094 36.8125 L 96.582031 18.351562 C 96.832031 18.109375 96.988281 17.820312 97.058594 17.480469 C 97.125 17.140625 97.09375 16.8125 96.957031 16.496094 C 96.824219 16.175781 96.609375 15.921875 96.320312 15.734375 C 96.027344 15.550781 95.707031 15.460938 95.363281 15.472656 Z M 95.363281 15.472656 " fill-opacity="1" fill-rule="nonzero"/></g><path stroke-linecap="round" transform="matrix(0.745529, -0.00304166, 0.00304166, 0.745529, 116.592061, 87.659084)" fill="none" stroke-linejoin="miter" d="M 0.49798 0.501229 L 330.077105 0.499298 " stroke="#ffffff" stroke-width="1" stroke-opacity="1" stroke-miterlimit="4"/><g fill="#0866ff" fill-opacity="1"><g transform="translate(116.593597, 45.156733)"><g><path d="M 14.28125 -22.140625 L 14.28125 -17.71875 L 6.65625 -17.71875 L 6.65625 -13.3125 L 13.953125 -13.3125 L 13.953125 -8.890625 L 6.65625 -8.890625 L 6.65625 -4.421875 L 14.28125 -4.421875 L 14.28125 0 L 1.609375 0 L 1.609375 -22.140625 Z M 14.28125 -22.140625 "/></g></g></g><g fill="#0866ff" fill-opacity="1"><g transform="translate(133.421086, 45.156733)"><g><path d="M 1.609375 -9.828125 L 10.25 -9.828125 L 10.25 -5.71875 L 1.609375 -5.71875 Z M 1.609375 -9.828125 "/></g></g></g><g fill="#0866ff" fill-opacity="1"><g transform="translate(146.545011, 45.156733)"><g><path d="M 13.390625 -4.5625 C 14.160156 -4.5625 14.90625 -4.675781 15.625 -4.90625 C 16.351562 -5.144531 16.890625 -5.367188 17.234375 -5.578125 L 17.75 -5.9375 L 19.890625 -1.640625 C 19.816406 -1.585938 19.71875 -1.515625 19.59375 -1.421875 C 19.46875 -1.328125 19.175781 -1.160156 18.71875 -0.921875 C 18.257812 -0.679688 17.769531 -0.472656 17.25 -0.296875 C 16.738281 -0.117188 16.0625 0.0390625 15.21875 0.1875 C 14.375 0.332031 13.503906 0.40625 12.609375 0.40625 C 10.554688 0.40625 8.609375 -0.0976562 6.765625 -1.109375 C 4.921875 -2.117188 3.4375 -3.507812 2.3125 -5.28125 C 1.1875 -7.0625 0.625 -8.976562 0.625 -11.03125 C 0.625 -12.59375 0.953125 -14.085938 1.609375 -15.515625 C 2.273438 -16.941406 3.15625 -18.164062 4.25 -19.1875 C 5.351562 -20.207031 6.640625 -21.019531 8.109375 -21.625 C 9.578125 -22.238281 11.078125 -22.546875 12.609375 -22.546875 C 14.046875 -22.546875 15.367188 -22.375 16.578125 -22.03125 C 17.785156 -21.695312 18.640625 -21.359375 19.140625 -21.015625 L 19.890625 -20.515625 L 17.75 -16.21875 C 17.625 -16.320312 17.429688 -16.445312 17.171875 -16.59375 C 16.921875 -16.75 16.421875 -16.953125 15.671875 -17.203125 C 14.921875 -17.453125 14.160156 -17.578125 13.390625 -17.578125 C 12.171875 -17.578125 11.078125 -17.378906 10.109375 -16.984375 C 9.148438 -16.597656 8.390625 -16.082031 7.828125 -15.4375 C 7.265625 -14.789062 6.832031 -14.09375 6.53125 -13.34375 C 6.238281 -12.601562 6.09375 -11.851562 6.09375 -11.09375 C 6.09375 -9.40625 6.722656 -7.894531 7.984375 -6.5625 C 9.242188 -5.226562 11.046875 -4.5625 13.390625 -4.5625 Z M 13.390625 -4.5625 "/></g></g></g><g fill="#0866ff" fill-opacity="1"><g transform="translate(168.015354, 45.156733)"><g><path d="M 2.90625 -1.625 C 1.382812 -2.988281 0.625 -4.734375 0.625 -6.859375 C 0.625 -8.992188 1.414062 -10.742188 3 -12.109375 C 4.59375 -13.484375 6.5625 -14.171875 8.90625 -14.171875 C 11.21875 -14.171875 13.164062 -13.484375 14.75 -12.109375 C 16.332031 -10.734375 17.125 -8.988281 17.125 -6.875 C 17.125 -4.757812 16.347656 -3.015625 14.796875 -1.640625 C 13.253906 -0.273438 11.289062 0.40625 8.90625 0.40625 C 6.4375 0.40625 4.4375 -0.269531 2.90625 -1.625 Z M 6.578125 -9.203125 C 5.960938 -8.597656 5.65625 -7.820312 5.65625 -6.875 C 5.65625 -5.925781 5.953125 -5.148438 6.546875 -4.546875 C 7.140625 -3.953125 7.921875 -3.65625 8.890625 -3.65625 C 9.816406 -3.65625 10.578125 -3.957031 11.171875 -4.5625 C 11.773438 -5.164062 12.078125 -5.9375 12.078125 -6.875 C 12.078125 -7.820312 11.769531 -8.597656 11.15625 -9.203125 C 10.539062 -9.816406 9.785156 -10.125 8.890625 -10.125 C 7.972656 -10.125 7.203125 -9.816406 6.578125 -9.203125 Z M 6.578125 -9.203125 "/></g></g></g><g fill="#0866ff" fill-opacity="1"><g transform="translate(187.016659, 45.156733)"><g><path d="M 1.609375 0 L 1.609375 -13.765625 L 6.359375 -13.765625 L 6.359375 -12.328125 L 6.421875 -12.328125 C 7.648438 -13.554688 8.960938 -14.171875 10.359375 -14.171875 C 11.359375 -14.171875 12.296875 -13.960938 13.171875 -13.546875 C 14.054688 -13.140625 14.722656 -12.507812 15.171875 -11.65625 C 16.566406 -13.332031 18.085938 -14.171875 19.734375 -14.171875 C 21.203125 -14.171875 22.460938 -13.757812 23.515625 -12.9375 C 24.566406 -12.113281 25.09375 -10.828125 25.09375 -9.078125 L 25.09375 0 L 20.34375 0 L 20.34375 -7.78125 C 20.34375 -8.519531 20.140625 -9.132812 19.734375 -9.625 C 19.335938 -10.113281 18.738281 -10.359375 17.9375 -10.359375 C 17.238281 -10.359375 16.703125 -10.144531 16.328125 -9.71875 C 15.960938 -9.300781 15.765625 -8.800781 15.734375 -8.21875 L 15.734375 0 L 10.984375 0 L 10.984375 -7.78125 C 10.984375 -8.519531 10.78125 -9.132812 10.375 -9.625 C 9.96875 -10.113281 9.363281 -10.359375 8.5625 -10.359375 C 7.832031 -10.359375 7.28125 -10.128906 6.90625 -9.671875 C 6.539062 -9.222656 6.359375 -8.679688 6.359375 -8.046875 L 6.359375 0 Z M 1.609375 0 "/></g></g></g><g fill="#0866ff" fill-opacity="1"><g transform="translate(214.713268, 45.156733)"><g><path d="M 1.609375 0 L 1.609375 -13.765625 L 6.359375 -13.765625 L 6.359375 -12.328125 L 6.421875 -12.328125 C 7.648438 -13.554688 8.960938 -14.171875 10.359375 -14.171875 C 11.359375 -14.171875 12.296875 -13.960938 13.171875 -13.546875 C 14.054688 -13.140625 14.722656 -12.507812 15.171875 -11.65625 C 16.566406 -13.332031 18.085938 -14.171875 19.734375 -14.171875 C 21.203125 -14.171875 22.460938 -13.757812 23.515625 -12.9375 C 24.566406 -12.113281 25.09375 -10.828125 25.09375 -9.078125 L 25.09375 0 L 20.34375 0 L 20.34375 -7.78125 C 20.34375 -8.519531 20.140625 -9.132812 19.734375 -9.625 C 19.335938 -10.113281 18.738281 -10.359375 17.9375 -10.359375 C 17.238281 -10.359375 16.703125 -10.144531 16.328125 -9.71875 C 15.960938 -9.300781 15.765625 -8.800781 15.734375 -8.21875 L 15.734375 0 L 10.984375 0 L 10.984375 -7.78125 C 10.984375 -8.519531 10.78125 -9.132812 10.375 -9.625 C 9.96875 -10.113281 9.363281 -10.359375 8.5625 -10.359375 C 7.832031 -10.359375 7.28125 -10.128906 6.90625 -9.671875 C 6.539062 -9.222656 6.359375 -8.679688 6.359375 -8.046875 L 6.359375 0 Z M 1.609375 0 "/></g></g></g><g fill="#0866ff" fill-opacity="1"><g transform="translate(242.409877, 45.156733)"><g><path d="M 15.546875 -6.234375 L 5.5625 -6.234375 C 5.5625 -5.265625 5.875 -4.546875 6.5 -4.078125 C 7.125 -3.609375 7.800781 -3.375 8.53125 -3.375 C 9.300781 -3.375 9.910156 -3.476562 10.359375 -3.6875 C 10.804688 -3.894531 11.316406 -4.300781 11.890625 -4.90625 L 15.328125 -3.1875 C 13.898438 -0.789062 11.519531 0.40625 8.1875 0.40625 C 6.113281 0.40625 4.332031 -0.300781 2.84375 -1.71875 C 1.363281 -3.144531 0.625 -4.859375 0.625 -6.859375 C 0.625 -8.867188 1.363281 -10.585938 2.84375 -12.015625 C 4.332031 -13.453125 6.113281 -14.171875 8.1875 -14.171875 C 10.375 -14.171875 12.148438 -13.539062 13.515625 -12.28125 C 14.878906 -11.019531 15.5625 -9.21875 15.5625 -6.875 C 15.5625 -6.550781 15.554688 -6.335938 15.546875 -6.234375 Z M 5.6875 -8.859375 L 10.921875 -8.859375 C 10.816406 -9.578125 10.535156 -10.128906 10.078125 -10.515625 C 9.617188 -10.898438 9.035156 -11.09375 8.328125 -11.09375 C 7.535156 -11.09375 6.90625 -10.882812 6.4375 -10.46875 C 5.976562 -10.0625 5.726562 -9.523438 5.6875 -8.859375 Z M 5.6875 -8.859375 "/></g></g></g><g fill="#0866ff" fill-opacity="1"><g transform="translate(259.854616, 45.156733)"><g><path d="M 1.609375 0 L 1.609375 -13.765625 L 6.359375 -13.765625 L 6.359375 -11.78125 L 6.421875 -11.78125 C 6.453125 -11.851562 6.507812 -11.941406 6.59375 -12.046875 C 6.675781 -12.160156 6.847656 -12.347656 7.109375 -12.609375 C 7.378906 -12.878906 7.664062 -13.117188 7.96875 -13.328125 C 8.269531 -13.546875 8.660156 -13.738281 9.140625 -13.90625 C 9.628906 -14.082031 10.125 -14.171875 10.625 -14.171875 C 11.144531 -14.171875 11.65625 -14.097656 12.15625 -13.953125 C 12.65625 -13.816406 13.023438 -13.675781 13.265625 -13.53125 L 13.640625 -13.3125 L 11.65625 -9.28125 C 11.0625 -9.789062 10.238281 -10.046875 9.1875 -10.046875 C 8.613281 -10.046875 8.117188 -9.914062 7.703125 -9.65625 C 7.296875 -9.40625 7.003906 -9.101562 6.828125 -8.75 C 6.660156 -8.394531 6.539062 -8.09375 6.46875 -7.84375 C 6.394531 -7.59375 6.359375 -7.394531 6.359375 -7.25 L 6.359375 0 Z M 1.609375 0 "/></g></g></g><g fill="#0866ff" fill-opacity="1"><g transform="translate(274.481431, 45.156733)"><g><path d="M 8.9375 -10.28125 C 8.039062 -10.28125 7.269531 -9.945312 6.625 -9.28125 C 5.976562 -8.625 5.65625 -7.832031 5.65625 -6.90625 C 5.65625 -5.945312 5.976562 -5.132812 6.625 -4.46875 C 7.269531 -3.8125 8.039062 -3.484375 8.9375 -3.484375 C 9.363281 -3.484375 9.769531 -3.535156 10.15625 -3.640625 C 10.539062 -3.753906 10.820312 -3.863281 11 -3.96875 L 11.25 -4.140625 L 12.859375 -0.828125 C 12.734375 -0.742188 12.554688 -0.632812 12.328125 -0.5 C 12.109375 -0.363281 11.597656 -0.179688 10.796875 0.046875 C 10.003906 0.285156 9.148438 0.40625 8.234375 0.40625 C 6.210938 0.40625 4.4375 -0.300781 2.90625 -1.71875 C 1.382812 -3.144531 0.625 -4.851562 0.625 -6.84375 C 0.625 -8.851562 1.382812 -10.578125 2.90625 -12.015625 C 4.4375 -13.453125 6.210938 -14.171875 8.234375 -14.171875 C 9.148438 -14.171875 9.992188 -14.0625 10.765625 -13.84375 C 11.535156 -13.632812 12.082031 -13.421875 12.40625 -13.203125 L 12.859375 -12.890625 L 11.25 -9.640625 C 10.65625 -10.066406 9.882812 -10.28125 8.9375 -10.28125 Z M 8.9375 -10.28125 "/></g></g></g><g fill="#0866ff" fill-opacity="1"><g transform="translate(288.920403, 45.156733)"><g><path d="M 15.546875 -6.234375 L 5.5625 -6.234375 C 5.5625 -5.265625 5.875 -4.546875 6.5 -4.078125 C 7.125 -3.609375 7.800781 -3.375 8.53125 -3.375 C 9.300781 -3.375 9.910156 -3.476562 10.359375 -3.6875 C 10.804688 -3.894531 11.316406 -4.300781 11.890625 -4.90625 L 15.328125 -3.1875 C 13.898438 -0.789062 11.519531 0.40625 8.1875 0.40625 C 6.113281 0.40625 4.332031 -0.300781 2.84375 -1.71875 C 1.363281 -3.144531 0.625 -4.859375 0.625 -6.859375 C 0.625 -8.867188 1.363281 -10.585938 2.84375 -12.015625 C 4.332031 -13.453125 6.113281 -14.171875 8.1875 -14.171875 C 10.375 -14.171875 12.148438 -13.539062 13.515625 -12.28125 C 14.878906 -11.019531 15.5625 -9.21875 15.5625 -6.875 C 15.5625 -6.550781 15.554688 -6.335938 15.546875 -6.234375 Z M 5.6875 -8.859375 L 10.921875 -8.859375 C 10.816406 -9.578125 10.535156 -10.128906 10.078125 -10.515625 C 9.617188 -10.898438 9.035156 -11.09375 8.328125 -11.09375 C 7.535156 -11.09375 6.90625 -10.882812 6.4375 -10.46875 C 5.976562 -10.0625 5.726562 -9.523438 5.6875 -8.859375 Z M 5.6875 -8.859375 "/></g></g></g><g fill="#0866ff" fill-opacity="1"><g transform="translate(116.593597, 77.36152)"><g><path d="M 9.765625 -22.546875 C 10.960938 -22.546875 12.132812 -22.367188 13.28125 -22.015625 C 14.425781 -21.671875 15.28125 -21.328125 15.84375 -20.984375 L 16.640625 -20.453125 L 14.609375 -16.421875 C 14.441406 -16.535156 14.210938 -16.675781 13.921875 -16.84375 C 13.640625 -17.007812 13.101562 -17.234375 12.3125 -17.515625 C 11.53125 -17.804688 10.800781 -17.953125 10.125 -17.953125 C 9.28125 -17.953125 8.628906 -17.773438 8.171875 -17.421875 C 7.710938 -17.066406 7.484375 -16.582031 7.484375 -15.96875 C 7.484375 -15.664062 7.59375 -15.382812 7.8125 -15.125 C 8.03125 -14.863281 8.394531 -14.582031 8.90625 -14.28125 C 9.425781 -13.988281 9.882812 -13.753906 10.28125 -13.578125 C 10.675781 -13.398438 11.285156 -13.132812 12.109375 -12.78125 C 13.535156 -12.164062 14.753906 -11.332031 15.765625 -10.28125 C 16.773438 -9.238281 17.28125 -8.054688 17.28125 -6.734375 C 17.28125 -5.460938 17.050781 -4.351562 16.59375 -3.40625 C 16.144531 -2.457031 15.519531 -1.710938 14.71875 -1.171875 C 13.925781 -0.640625 13.046875 -0.242188 12.078125 0.015625 C 11.109375 0.273438 10.0625 0.40625 8.9375 0.40625 C 7.96875 0.40625 7.019531 0.304688 6.09375 0.109375 C 5.164062 -0.0859375 4.382812 -0.332031 3.75 -0.625 C 3.125 -0.925781 2.5625 -1.21875 2.0625 -1.5 C 1.5625 -1.789062 1.195312 -2.035156 0.96875 -2.234375 L 0.625 -2.515625 L 3.140625 -6.765625 C 3.359375 -6.585938 3.65625 -6.359375 4.03125 -6.078125 C 4.40625 -5.796875 5.070312 -5.421875 6.03125 -4.953125 C 6.988281 -4.492188 7.832031 -4.265625 8.5625 -4.265625 C 10.6875 -4.265625 11.75 -4.988281 11.75 -6.4375 C 11.75 -6.75 11.671875 -7.03125 11.515625 -7.28125 C 11.367188 -7.539062 11.101562 -7.800781 10.71875 -8.0625 C 10.332031 -8.320312 9.992188 -8.523438 9.703125 -8.671875 C 9.410156 -8.828125 8.925781 -9.0625 8.25 -9.375 C 7.582031 -9.695312 7.085938 -9.9375 6.765625 -10.09375 C 5.421875 -10.757812 4.378906 -11.585938 3.640625 -12.578125 C 2.910156 -13.566406 2.546875 -14.632812 2.546875 -15.78125 C 2.546875 -17.769531 3.28125 -19.394531 4.75 -20.65625 C 6.21875 -21.914062 7.890625 -22.546875 9.765625 -22.546875 Z M 9.765625 -22.546875 "/></g></g></g><g fill="#0866ff" fill-opacity="1"><g transform="translate(135.890123, 77.36152)"><g><path d="M 1.609375 0 L 1.609375 -23.078125 L 6.359375 -23.078125 L 6.359375 -12.328125 L 6.421875 -12.328125 C 7.648438 -13.554688 8.960938 -14.171875 10.359375 -14.171875 C 11.035156 -14.171875 11.707031 -14.082031 12.375 -13.90625 C 13.050781 -13.726562 13.695312 -13.453125 14.3125 -13.078125 C 14.9375 -12.703125 15.441406 -12.164062 15.828125 -11.46875 C 16.210938 -10.78125 16.40625 -9.984375 16.40625 -9.078125 L 16.40625 0 L 11.65625 0 L 11.65625 -7.78125 C 11.65625 -8.5 11.425781 -9.125 10.96875 -9.65625 C 10.507812 -10.195312 9.914062 -10.46875 9.1875 -10.46875 C 8.46875 -10.46875 7.816406 -10.191406 7.234375 -9.640625 C 6.648438 -9.085938 6.359375 -8.46875 6.359375 -7.78125 L 6.359375 0 Z M 1.609375 0 "/></g></g></g><g fill="#0866ff" fill-opacity="1"><g transform="translate(154.891429, 77.36152)"><g><path d="M 2.90625 -1.625 C 1.382812 -2.988281 0.625 -4.734375 0.625 -6.859375 C 0.625 -8.992188 1.414062 -10.742188 3 -12.109375 C 4.59375 -13.484375 6.5625 -14.171875 8.90625 -14.171875 C 11.21875 -14.171875 13.164062 -13.484375 14.75 -12.109375 C 16.332031 -10.734375 17.125 -8.988281 17.125 -6.875 C 17.125 -4.757812 16.347656 -3.015625 14.796875 -1.640625 C 13.253906 -0.273438 11.289062 0.40625 8.90625 0.40625 C 6.4375 0.40625 4.4375 -0.269531 2.90625 -1.625 Z M 6.578125 -9.203125 C 5.960938 -8.597656 5.65625 -7.820312 5.65625 -6.875 C 5.65625 -5.925781 5.953125 -5.148438 6.546875 -4.546875 C 7.140625 -3.953125 7.921875 -3.65625 8.890625 -3.65625 C 9.816406 -3.65625 10.578125 -3.957031 11.171875 -4.5625 C 11.773438 -5.164062 12.078125 -5.9375 12.078125 -6.875 C 12.078125 -7.820312 11.769531 -8.597656 11.15625 -9.203125 C 10.539062 -9.816406 9.785156 -10.125 8.890625 -10.125 C 7.972656 -10.125 7.203125 -9.816406 6.578125 -9.203125 Z M 6.578125 -9.203125 "/></g></g></g><g fill="#0866ff" fill-opacity="1"><g transform="translate(173.892734, 77.36152)"><g><path d="M 15.78125 -12.0625 C 17.070312 -10.65625 17.71875 -8.929688 17.71875 -6.890625 C 17.71875 -4.859375 17.070312 -3.132812 15.78125 -1.71875 C 14.488281 -0.300781 12.851562 0.40625 10.875 0.40625 C 9.050781 0.40625 7.546875 -0.164062 6.359375 -1.3125 L 6.359375 6.984375 L 1.609375 6.984375 L 1.609375 -13.765625 L 6.3125 -13.765625 L 6.3125 -12.21875 L 6.359375 -12.21875 C 7.546875 -13.519531 9.050781 -14.171875 10.875 -14.171875 C 12.851562 -14.171875 14.488281 -13.46875 15.78125 -12.0625 Z M 11.734375 -4.5625 C 12.359375 -5.164062 12.671875 -5.941406 12.671875 -6.890625 C 12.671875 -7.847656 12.375 -8.625 11.78125 -9.21875 C 11.195312 -9.820312 10.421875 -10.125 9.453125 -10.125 C 8.515625 -10.125 7.742188 -9.816406 7.140625 -9.203125 C 6.546875 -8.597656 6.25 -7.832031 6.25 -6.90625 C 6.25 -5.945312 6.554688 -5.164062 7.171875 -4.5625 C 7.796875 -3.957031 8.554688 -3.65625 9.453125 -3.65625 C 10.359375 -3.65625 11.117188 -3.957031 11.734375 -4.5625 Z M 11.734375 -4.5625 "/></g></g></g><g fill="#0866ff" fill-opacity="1"><g transform="translate(193.48447, 77.36152)"><g><path d="M 15.78125 -12.0625 C 17.070312 -10.65625 17.71875 -8.929688 17.71875 -6.890625 C 17.71875 -4.859375 17.070312 -3.132812 15.78125 -1.71875 C 14.488281 -0.300781 12.851562 0.40625 10.875 0.40625 C 9.050781 0.40625 7.546875 -0.164062 6.359375 -1.3125 L 6.359375 6.984375 L 1.609375 6.984375 L 1.609375 -13.765625 L 6.3125 -13.765625 L 6.3125 -12.21875 L 6.359375 -12.21875 C 7.546875 -13.519531 9.050781 -14.171875 10.875 -14.171875 C 12.851562 -14.171875 14.488281 -13.46875 15.78125 -12.0625 Z M 11.734375 -4.5625 C 12.359375 -5.164062 12.671875 -5.941406 12.671875 -6.890625 C 12.671875 -7.847656 12.375 -8.625 11.78125 -9.21875 C 11.195312 -9.820312 10.421875 -10.125 9.453125 -10.125 C 8.515625 -10.125 7.742188 -9.816406 7.140625 -9.203125 C 6.546875 -8.597656 6.25 -7.832031 6.25 -6.90625 C 6.25 -5.945312 6.554688 -5.164062 7.171875 -4.5625 C 7.796875 -3.957031 8.554688 -3.65625 9.453125 -3.65625 C 10.359375 -3.65625 11.117188 -3.957031 11.734375 -4.5625 Z M 11.734375 -4.5625 "/></g></g></g><g fill="#0866ff" fill-opacity="1"><g transform="translate(213.076206, 77.36152)"><g><path d="M 2.0625 -21.4375 C 2.625 -22 3.285156 -22.28125 4.046875 -22.28125 C 4.816406 -22.28125 5.476562 -22 6.03125 -21.4375 C 6.59375 -20.882812 6.875 -20.222656 6.875 -19.453125 C 6.875 -18.691406 6.59375 -18.03125 6.03125 -17.46875 C 5.476562 -16.914062 4.816406 -16.640625 4.046875 -16.640625 C 3.285156 -16.640625 2.625 -16.914062 2.0625 -17.46875 C 1.507812 -18.03125 1.234375 -18.691406 1.234375 -19.453125 C 1.234375 -20.222656 1.507812 -20.882812 2.0625 -21.4375 Z M 1.609375 -13.765625 L 1.609375 0 L 6.359375 0 L 6.359375 -13.765625 Z M 1.609375 -13.765625 "/></g></g></g><g fill="#0866ff" fill-opacity="1"><g transform="translate(222.442903, 77.36152)"><g><path d="M 1.609375 0 L 1.609375 -13.765625 L 6.359375 -13.765625 L 6.359375 -12.328125 L 6.421875 -12.328125 C 7.648438 -13.554688 8.960938 -14.171875 10.359375 -14.171875 C 11.035156 -14.171875 11.707031 -14.082031 12.375 -13.90625 C 13.050781 -13.726562 13.695312 -13.453125 14.3125 -13.078125 C 14.9375 -12.703125 15.441406 -12.164062 15.828125 -11.46875 C 16.210938 -10.78125 16.40625 -9.984375 16.40625 -9.078125 L 16.40625 0 L 11.65625 0 L 11.65625 -7.78125 C 11.65625 -8.5 11.425781 -9.125 10.96875 -9.65625 C 10.507812 -10.195312 9.914062 -10.46875 9.1875 -10.46875 C 8.46875 -10.46875 7.816406 -10.191406 7.234375 -9.640625 C 6.648438 -9.085938 6.359375 -8.46875 6.359375 -7.78125 L 6.359375 0 Z M 1.609375 0 "/></g></g></g><g fill="#0866ff" fill-opacity="1"><g transform="translate(241.444202, 77.36152)"><g><path d="M 1 3.375 L 4.890625 1.46875 C 5.597656 2.65625 6.835938 3.25 8.609375 3.25 C 9.441406 3.25 10.207031 2.984375 10.90625 2.453125 C 11.613281 1.929688 11.96875 1.125 11.96875 0.03125 L 11.96875 -1 C 11.125 -0.0625 9.625 0.40625 7.46875 0.40625 C 5.476562 0.40625 3.835938 -0.296875 2.546875 -1.703125 C 1.265625 -3.109375 0.625 -4.832031 0.625 -6.875 C 0.625 -8.914062 1.265625 -10.640625 2.546875 -12.046875 C 3.835938 -13.460938 5.476562 -14.171875 7.46875 -14.171875 C 9.238281 -14.171875 10.710938 -13.625 11.890625 -12.53125 L 11.96875 -12.53125 L 11.96875 -13.765625 L 16.71875 -13.765625 L 16.71875 0.375 C 16.71875 2.613281 15.972656 4.335938 14.484375 5.546875 C 13.003906 6.765625 11.046875 7.375 8.609375 7.375 C 4.679688 7.375 2.144531 6.039062 1 3.375 Z M 6.578125 -9.203125 C 5.960938 -8.597656 5.65625 -7.820312 5.65625 -6.875 C 5.65625 -5.925781 5.953125 -5.148438 6.546875 -4.546875 C 7.140625 -3.953125 7.921875 -3.65625 8.890625 -3.65625 C 9.816406 -3.65625 10.578125 -3.957031 11.171875 -4.5625 C 11.773438 -5.164062 12.078125 -5.9375 12.078125 -6.875 C 12.078125 -7.820312 11.769531 -8.597656 11.15625 -9.203125 C 10.539062 -9.816406 9.785156 -10.125 8.890625 -10.125 C 7.972656 -10.125 7.203125 -9.816406 6.578125 -9.203125 Z M 6.578125 -9.203125 "/></g></g></g><g fill="#ffffff" fill-opacity="1"><g transform="translate(120.620704, 115.925169)"><g><path d="M 17.734375 -18.171875 L 10.78125 -0.453125 C 10.65625 -0.128906 10.441406 0.03125 10.140625 0.03125 L 8.03125 0.03125 C 7.707031 0.03125 7.488281 -0.128906 7.375 -0.453125 L 0.40625 -18.1875 C 0.332031 -18.375 0.328125 -18.507812 0.390625 -18.59375 C 0.460938 -18.675781 0.578125 -18.71875 0.734375 -18.71875 L 3.609375 -18.71875 C 3.910156 -18.71875 4.117188 -18.5625 4.234375 -18.25 L 9.0625 -5.171875 L 13.875 -18.25 C 13.976562 -18.5625 14.179688 -18.71875 14.484375 -18.71875 L 17.40625 -18.71875 C 17.5625 -18.71875 17.675781 -18.671875 17.75 -18.578125 C 17.820312 -18.492188 17.816406 -18.359375 17.734375 -18.171875 Z M 17.734375 -18.171875 "/></g></g></g><g fill="#ffffff" fill-opacity="1"><g transform="translate(151.09213, 115.925169)"><g><path d="M 5.21875 -11.78125 L 5.21875 -0.578125 C 5.21875 -0.191406 5.007812 0 4.59375 0 L 2.390625 0 C 2.003906 0 1.8125 -0.191406 1.8125 -0.578125 L 1.8125 -11.78125 C 1.8125 -12.1875 2.003906 -12.390625 2.390625 -12.390625 L 4.59375 -12.390625 C 4.738281 -12.390625 4.878906 -12.332031 5.015625 -12.21875 C 5.148438 -12.113281 5.21875 -11.96875 5.21875 -11.78125 Z M 1.484375 -16.078125 C 1.484375 -16.609375 1.675781 -17.0625 2.0625 -17.4375 C 2.457031 -17.820312 2.914062 -18.015625 3.4375 -18.015625 C 3.988281 -18.015625 4.445312 -17.820312 4.8125 -17.4375 C 5.1875 -17.0625 5.375 -16.609375 5.375 -16.078125 C 5.375 -15.554688 5.1875 -15.101562 4.8125 -14.71875 C 4.445312 -14.34375 3.988281 -14.15625 3.4375 -14.15625 C 2.914062 -14.15625 2.457031 -14.34375 2.0625 -14.71875 C 1.675781 -15.101562 1.484375 -15.554688 1.484375 -16.078125 Z M 1.484375 -16.078125 "/></g></g></g><g fill="#ffffff" fill-opacity="1"><g transform="translate(170.720425, 115.925169)"><g><path d="M 0.609375 -2.140625 C 0.578125 -2.191406 0.5625 -2.273438 0.5625 -2.390625 C 0.5625 -2.441406 0.570312 -2.5 0.59375 -2.5625 C 0.613281 -2.632812 0.660156 -2.695312 0.734375 -2.75 L 2.265625 -3.984375 C 2.316406 -4.066406 2.410156 -4.109375 2.546875 -4.109375 C 2.648438 -4.109375 2.785156 -4.050781 2.953125 -3.9375 C 3.273438 -3.664062 3.632812 -3.367188 4.03125 -3.046875 C 4.4375 -2.734375 4.898438 -2.578125 5.421875 -2.578125 C 5.992188 -2.578125 6.382812 -2.695312 6.59375 -2.9375 C 6.8125 -3.1875 6.921875 -3.46875 6.921875 -3.78125 C 6.921875 -4.03125 6.796875 -4.242188 6.546875 -4.421875 C 6.304688 -4.597656 6.035156 -4.742188 5.734375 -4.859375 C 5.441406 -4.984375 5.203125 -5.070312 5.015625 -5.125 C 3.554688 -5.507812 2.5 -6.015625 1.84375 -6.640625 C 1.1875 -7.265625 0.859375 -8.0625 0.859375 -9.03125 C 0.859375 -9.675781 1.050781 -10.269531 1.4375 -10.8125 C 1.820312 -11.363281 2.367188 -11.800781 3.078125 -12.125 C 3.796875 -12.457031 4.628906 -12.625 5.578125 -12.625 C 6.421875 -12.625 7.175781 -12.484375 7.84375 -12.203125 C 8.519531 -11.921875 9.109375 -11.554688 9.609375 -11.109375 C 9.910156 -10.804688 10.0625 -10.550781 10.0625 -10.34375 C 10.0625 -10.28125 9.972656 -10.160156 9.796875 -9.984375 C 9.617188 -9.804688 9.410156 -9.613281 9.171875 -9.40625 C 8.929688 -9.207031 8.707031 -9.039062 8.5 -8.90625 C 8.300781 -8.769531 8.164062 -8.703125 8.09375 -8.703125 C 7.957031 -8.703125 7.816406 -8.78125 7.671875 -8.9375 C 7.429688 -9.132812 7.148438 -9.328125 6.828125 -9.515625 C 6.515625 -9.710938 6.113281 -9.8125 5.625 -9.8125 C 5.300781 -9.8125 5 -9.753906 4.71875 -9.640625 C 4.445312 -9.523438 4.3125 -9.304688 4.3125 -8.984375 C 4.3125 -8.679688 4.484375 -8.441406 4.828125 -8.265625 C 5.171875 -8.085938 5.648438 -7.90625 6.265625 -7.71875 C 7.554688 -7.300781 8.585938 -6.789062 9.359375 -6.1875 C 10.128906 -5.59375 10.515625 -4.742188 10.515625 -3.640625 C 10.515625 -2.773438 10.273438 -2.050781 9.796875 -1.46875 C 9.316406 -0.894531 8.691406 -0.457031 7.921875 -0.15625 C 7.160156 0.144531 6.335938 0.296875 5.453125 0.296875 C 4.578125 0.296875 3.75 0.132812 2.96875 -0.1875 C 2.1875 -0.519531 1.523438 -0.972656 0.984375 -1.546875 C 0.796875 -1.765625 0.671875 -1.960938 0.609375 -2.140625 Z M 0.609375 -2.140625 "/></g></g></g><g fill="#ffffff" fill-opacity="1"><g transform="translate(194.332937, 115.925169)"><g><path d="M 2.0625 -12.390625 L 2.0625 -15.796875 C 2.0625 -16.234375 2.320312 -16.476562 2.84375 -16.53125 L 4.71875 -16.8125 C 4.75 -16.820312 4.804688 -16.828125 4.890625 -16.828125 C 5.128906 -16.828125 5.289062 -16.753906 5.375 -16.609375 C 5.457031 -16.472656 5.5 -16.296875 5.5 -16.078125 L 5.5 -12.390625 L 7.015625 -12.390625 C 7.472656 -12.390625 7.703125 -12.144531 7.703125 -11.65625 L 7.703125 -10.265625 C 7.703125 -9.742188 7.472656 -9.484375 7.015625 -9.484375 L 5.5 -9.484375 L 5.5 -0.734375 C 5.5 -0.242188 5.269531 0 4.8125 0 L 2.703125 0 C 2.453125 0 2.28125 -0.0625 2.1875 -0.1875 C 2.101562 -0.3125 2.0625 -0.492188 2.0625 -0.734375 L 2.0625 -9.484375 L 1.390625 -9.484375 C 0.898438 -9.484375 0.65625 -9.742188 0.65625 -10.265625 L 0.65625 -11.65625 C 0.65625 -12.144531 0.898438 -12.390625 1.390625 -12.390625 Z M 2.0625 -12.390625 "/></g></g></g><g fill="#ffffff" fill-opacity="1"><g transform="translate(214.969899, 115.925169)"><g><path d="M 10.578125 -0.6875 C 10.554688 -0.851562 10.53125 -0.988281 10.5 -1.09375 C 10.476562 -1.207031 10.453125 -1.347656 10.421875 -1.515625 C 10.117188 -1.054688 9.734375 -0.644531 9.265625 -0.28125 C 8.804688 0.0703125 8.109375 0.25 7.171875 0.25 L 7.109375 0.25 C 5.921875 0.25 4.867188 -0.03125 3.953125 -0.59375 C 3.035156 -1.15625 2.316406 -1.921875 1.796875 -2.890625 C 1.273438 -3.867188 1.015625 -4.957031 1.015625 -6.15625 C 1.015625 -7.382812 1.269531 -8.476562 1.78125 -9.4375 C 2.289062 -10.394531 3.003906 -11.15625 3.921875 -11.71875 C 4.835938 -12.28125 5.898438 -12.5625 7.109375 -12.5625 C 8.003906 -12.5625 8.695312 -12.382812 9.1875 -12.03125 C 9.6875 -11.675781 10.128906 -11.257812 10.515625 -10.78125 L 10.78125 -11.734375 C 10.84375 -12.015625 10.914062 -12.203125 11 -12.296875 C 11.082031 -12.390625 11.242188 -12.4375 11.484375 -12.4375 L 12.890625 -12.390625 C 13.078125 -12.390625 13.242188 -12.328125 13.390625 -12.203125 C 13.546875 -12.078125 13.625 -11.910156 13.625 -11.703125 L 13.625 -0.625 C 13.625 -0.425781 13.546875 -0.269531 13.390625 -0.15625 C 13.242188 -0.0507812 13.078125 0 12.890625 0 L 11.28125 0 C 11.03125 0 10.859375 -0.0625 10.765625 -0.1875 C 10.671875 -0.3125 10.609375 -0.476562 10.578125 -0.6875 Z M 4.296875 -6.125 C 4.296875 -5.207031 4.570312 -4.421875 5.125 -3.765625 C 5.675781 -3.117188 6.40625 -2.796875 7.3125 -2.796875 C 8.257812 -2.796875 9.003906 -3.113281 9.546875 -3.75 C 10.097656 -4.394531 10.375 -5.179688 10.375 -6.109375 C 10.375 -7.035156 10.101562 -7.828125 9.5625 -8.484375 C 9.019531 -9.148438 8.269531 -9.484375 7.3125 -9.484375 C 6.707031 -9.484375 6.175781 -9.332031 5.71875 -9.03125 C 5.269531 -8.726562 4.921875 -8.320312 4.671875 -7.8125 C 4.421875 -7.300781 4.296875 -6.738281 4.296875 -6.125 Z M 4.296875 -6.125 "/></g></g></g><g fill="#ffffff" fill-opacity="1"><g transform="translate(242.314457, 115.925169)"><g><path d="M 4.765625 -11.6875 C 4.785156 -11.601562 4.828125 -11.4375 4.890625 -11.1875 C 4.960938 -10.945312 5.003906 -10.785156 5.015625 -10.703125 C 5.316406 -11.109375 5.738281 -11.515625 6.28125 -11.921875 C 6.820312 -12.335938 7.453125 -12.546875 8.171875 -12.546875 C 8.253906 -12.546875 8.335938 -12.546875 8.421875 -12.546875 C 8.503906 -12.546875 8.582031 -12.535156 8.65625 -12.515625 C 8.976562 -12.484375 9.335938 -12.382812 9.734375 -12.21875 C 10.140625 -12.0625 10.5 -11.875 10.8125 -11.65625 C 11.125 -11.4375 11.28125 -11.234375 11.28125 -11.046875 C 11.28125 -10.953125 11.238281 -10.835938 11.15625 -10.703125 L 10.140625 -9.0625 C 9.992188 -8.820312 9.816406 -8.703125 9.609375 -8.703125 C 9.546875 -8.703125 9.445312 -8.734375 9.3125 -8.796875 C 9.175781 -8.867188 9.03125 -8.941406 8.875 -9.015625 C 8.644531 -9.179688 8.441406 -9.296875 8.265625 -9.359375 C 8.085938 -9.429688 7.878906 -9.46875 7.640625 -9.46875 C 7.160156 -9.46875 6.738281 -9.34375 6.375 -9.09375 C 6.007812 -8.851562 5.734375 -8.539062 5.546875 -8.15625 C 5.367188 -7.78125 5.28125 -7.398438 5.28125 -7.015625 L 5.28125 -0.625 C 5.28125 -0.207031 5.050781 0 4.59375 0 L 2.5 0 C 2.0625 0 1.84375 -0.207031 1.84375 -0.625 L 1.84375 -11.6875 C 1.84375 -11.90625 1.910156 -12.066406 2.046875 -12.171875 C 2.179688 -12.285156 2.332031 -12.34375 2.5 -12.34375 L 4.109375 -12.34375 C 4.316406 -12.34375 4.460938 -12.273438 4.546875 -12.140625 C 4.640625 -12.003906 4.710938 -11.851562 4.765625 -11.6875 Z M 4.765625 -11.6875 "/></g></g></g><g fill="#ffffff" fill-opacity="1"><g transform="translate(266.633031, 115.925169)"><g><path d="M 10.578125 -0.6875 C 10.554688 -0.851562 10.53125 -0.988281 10.5 -1.09375 C 10.476562 -1.207031 10.453125 -1.347656 10.421875 -1.515625 C 10.117188 -1.054688 9.734375 -0.644531 9.265625 -0.28125 C 8.804688 0.0703125 8.109375 0.25 7.171875 0.25 L 7.109375 0.25 C 5.921875 0.25 4.867188 -0.03125 3.953125 -0.59375 C 3.035156 -1.15625 2.316406 -1.921875 1.796875 -2.890625 C 1.273438 -3.867188 1.015625 -4.957031 1.015625 -6.15625 C 1.015625 -7.382812 1.269531 -8.476562 1.78125 -9.4375 C 2.289062 -10.394531 3.003906 -11.15625 3.921875 -11.71875 C 4.835938 -12.28125 5.898438 -12.5625 7.109375 -12.5625 C 8.003906 -12.5625 8.695312 -12.382812 9.1875 -12.03125 C 9.6875 -11.675781 10.128906 -11.257812 10.515625 -10.78125 L 10.78125 -11.734375 C 10.84375 -12.015625 10.914062 -12.203125 11 -12.296875 C 11.082031 -12.390625 11.242188 -12.4375 11.484375 -12.4375 L 12.890625 -12.390625 C 13.078125 -12.390625 13.242188 -12.328125 13.390625 -12.203125 C 13.546875 -12.078125 13.625 -11.910156 13.625 -11.703125 L 13.625 -0.625 C 13.625 -0.425781 13.546875 -0.269531 13.390625 -0.15625 C 13.242188 -0.0507812 13.078125 0 12.890625 0 L 11.28125 0 C 11.03125 0 10.859375 -0.0625 10.765625 -0.1875 C 10.671875 -0.3125 10.609375 -0.476562 10.578125 -0.6875 Z M 4.296875 -6.125 C 4.296875 -5.207031 4.570312 -4.421875 5.125 -3.765625 C 5.675781 -3.117188 6.40625 -2.796875 7.3125 -2.796875 C 8.257812 -2.796875 9.003906 -3.113281 9.546875 -3.75 C 10.097656 -4.394531 10.375 -5.179688 10.375 -6.109375 C 10.375 -7.035156 10.101562 -7.828125 9.5625 -8.484375 C 9.019531 -9.148438 8.269531 -9.484375 7.3125 -9.484375 C 6.707031 -9.484375 6.175781 -9.332031 5.71875 -9.03125 C 5.269531 -8.726562 4.921875 -8.320312 4.671875 -7.8125 C 4.421875 -7.300781 4.296875 -6.738281 4.296875 -6.125 Z M 4.296875 -6.125 "/></g></g></g><g fill="#ffffff" fill-opacity="1"><g transform="translate(293.977589, 115.925169)"><g><path d="M 2.046875 -0.5625 L 2.046875 -18.1875 C 2.046875 -18.34375 2.097656 -18.472656 2.203125 -18.578125 C 2.316406 -18.691406 2.457031 -18.75 2.625 -18.75 L 5.203125 -18.75 C 5.554688 -18.75 5.738281 -18.5625 5.75 -18.1875 L 5.75 -3.4375 L 13.125 -3.4375 C 13.269531 -3.4375 13.394531 -3.382812 13.5 -3.28125 C 13.613281 -3.175781 13.671875 -3.03125 13.671875 -2.84375 L 13.671875 -0.5625 C 13.671875 -0.207031 13.488281 -0.0195312 13.125 0 L 2.59375 0 C 2.226562 0 2.046875 -0.1875 2.046875 -0.5625 Z M 2.046875 -0.5625 "/></g></g></g><g fill="#ffffff" fill-opacity="1"><g transform="translate(320.817821, 115.925169)"><g><path d="M 11.4375 0 C 11.09375 0 10.851562 -0.0625 10.71875 -0.1875 C 10.582031 -0.3125 10.488281 -0.488281 10.4375 -0.71875 C 10.394531 -0.957031 10.332031 -1.222656 10.25 -1.515625 C 9.863281 -1.078125 9.3125 -0.6875 8.59375 -0.34375 C 7.875 -0.0078125 7.101562 0.15625 6.28125 0.15625 C 4.71875 0.15625 3.53125 -0.3125 2.71875 -1.25 C 1.914062 -2.1875 1.515625 -3.375 1.515625 -4.8125 L 1.515625 -11.640625 C 1.515625 -11.867188 1.582031 -12.050781 1.71875 -12.1875 C 1.863281 -12.320312 2.039062 -12.390625 2.25 -12.390625 L 4.3125 -12.390625 C 4.582031 -12.390625 4.765625 -12.328125 4.859375 -12.203125 C 4.960938 -12.078125 5.015625 -11.894531 5.015625 -11.65625 L 5.015625 -5.40625 C 5.015625 -4.726562 5.210938 -4.179688 5.609375 -3.765625 C 6.003906 -3.359375 6.53125 -3.15625 7.1875 -3.15625 C 7.5625 -3.15625 7.96875 -3.242188 8.40625 -3.421875 C 8.851562 -3.609375 9.238281 -3.863281 9.5625 -4.1875 C 9.894531 -4.519531 10.0625 -4.898438 10.0625 -5.328125 L 10.0625 -11.6875 C 10.0625 -12.15625 10.304688 -12.390625 10.796875 -12.390625 L 12.84375 -12.390625 C 13.082031 -12.390625 13.265625 -12.320312 13.390625 -12.1875 C 13.515625 -12.050781 13.578125 -11.882812 13.578125 -11.6875 L 13.578125 -0.75 C 13.578125 -0.25 13.316406 0 12.796875 0 Z M 11.4375 0 "/></g></g></g><g fill="#ffffff" fill-opacity="1"><g transform="translate(347.506751, 115.925169)"><g><path d="M 3.6875 0 L 0.703125 0 C 0.472656 0 0.359375 -0.0664062 0.359375 -0.203125 C 0.359375 -0.304688 0.398438 -0.425781 0.484375 -0.5625 L 0.5625 -0.703125 C 0.59375 -0.785156 0.632812 -0.863281 0.6875 -0.9375 C 0.75 -1.019531 0.816406 -1.09375 0.890625 -1.15625 C 1.472656 -2.050781 2.070312 -2.9375 2.6875 -3.8125 C 3.300781 -4.695312 3.921875 -5.578125 4.546875 -6.453125 L 0.890625 -11.6875 C 0.835938 -11.769531 0.789062 -11.847656 0.75 -11.921875 C 0.707031 -11.992188 0.6875 -12.054688 0.6875 -12.109375 C 0.6875 -12.273438 0.84375 -12.359375 1.15625 -12.359375 L 3.4375 -12.359375 C 3.789062 -12.359375 4.054688 -12.304688 4.234375 -12.203125 C 4.421875 -12.109375 4.625 -11.882812 4.84375 -11.53125 C 5.144531 -11.0625 5.4375 -10.585938 5.71875 -10.109375 C 6.007812 -9.640625 6.289062 -9.171875 6.5625 -8.703125 C 6.726562 -8.941406 6.894531 -9.195312 7.0625 -9.46875 C 7.226562 -9.75 7.398438 -10.023438 7.578125 -10.296875 C 7.859375 -10.765625 8.132812 -11.222656 8.40625 -11.671875 C 8.6875 -12.128906 9.003906 -12.359375 9.359375 -12.359375 L 12.0625 -12.359375 C 12.363281 -12.359375 12.515625 -12.273438 12.515625 -12.109375 C 12.515625 -12.046875 12.460938 -11.929688 12.359375 -11.765625 C 11.890625 -11.109375 11.46875 -10.519531 11.09375 -10 C 10.726562 -9.488281 10.351562 -8.957031 9.96875 -8.40625 C 9.59375 -7.863281 9.140625 -7.210938 8.609375 -6.453125 L 12.546875 -0.734375 C 12.628906 -0.617188 12.679688 -0.519531 12.703125 -0.4375 C 12.734375 -0.363281 12.753906 -0.296875 12.765625 -0.234375 C 12.765625 -0.078125 12.640625 0 12.390625 0 L 9.4375 0 C 9.195312 0 9.019531 -0.0664062 8.90625 -0.203125 C 8.800781 -0.347656 8.660156 -0.539062 8.484375 -0.78125 C 8.160156 -1.300781 7.835938 -1.8125 7.515625 -2.3125 C 7.203125 -2.820312 6.882812 -3.335938 6.5625 -3.859375 L 4.4375 -0.484375 C 4.21875 -0.160156 3.96875 0 3.6875 0 Z M 3.6875 0 "/></g></g></g></svg>