<svg xmlns="http://www.w3.org/2000/svg" xmlns:xlink="http://www.w3.org/1999/xlink" width="500" zoomAndPan="magnify" viewBox="0 0 375 374.999991" height="500" preserveAspectRatio="xMidYMid meet" version="1.0"><defs><clipPath id="0f435f9883"><path d="M 245 298 L 323 298 L 323 374.226562 L 245 374.226562 Z M 245 298 " clip-rule="nonzero"/></clipPath><clipPath id="3aa76b98e6"><path d="M 92 298 L 169 298 L 169 374.226562 L 92 374.226562 Z M 92 298 " clip-rule="nonzero"/></clipPath><clipPath id="781f8d24fc"><path d="M 199 6.726562 L 367.5 6.726562 L 367.5 176 L 199 176 Z M 199 6.726562 " clip-rule="nonzero"/></clipPath><clipPath id="88b58b14dc"><path d="M 191.589844 0 L 375 0 L 375 183.410156 L 191.589844 183.410156 Z M 191.589844 0 " clip-rule="nonzero"/></clipPath><clipPath id="c856281231"><path d="M 283.296875 0 C 232.648438 0 191.589844 41.058594 191.589844 91.703125 C 191.589844 142.351562 232.648438 183.410156 283.296875 183.410156 C 333.941406 183.410156 375 142.351562 375 91.703125 C 375 41.058594 333.941406 0 283.296875 0 Z M 283.296875 0 " clip-rule="nonzero"/></clipPath><clipPath id="ac799bb347"><path d="M 198.320312 6.726562 L 368.273438 6.726562 L 368.273438 176.679688 L 198.320312 176.679688 Z M 198.320312 6.726562 " clip-rule="nonzero"/></clipPath><clipPath id="0e4c7e6808"><path d="M 283.296875 6.726562 C 236.363281 6.726562 198.320312 44.773438 198.320312 91.703125 C 198.320312 138.636719 236.363281 176.679688 283.296875 176.679688 C 330.226562 176.679688 368.273438 138.636719 368.273438 91.703125 C 368.273438 44.773438 330.226562 6.726562 283.296875 6.726562 Z M 283.296875 6.726562 " clip-rule="nonzero"/></clipPath><clipPath id="68cbfd4b42"><path d="M 233.242188 53.476562 L 333 53.476562 L 333 130 L 233.242188 130 Z M 233.242188 53.476562 " clip-rule="nonzero"/></clipPath></defs><g clip-path="url(#0f435f9883)"><path fill="#0866ff" d="M 322.210938 336.613281 C 322.210938 337.867188 322.148438 339.121094 322.027344 340.371094 C 321.902344 341.621094 321.71875 342.863281 321.476562 344.09375 C 321.230469 345.328125 320.925781 346.542969 320.558594 347.746094 C 320.195312 348.949219 319.773438 350.128906 319.292969 351.292969 C 318.8125 352.453125 318.273438 353.585938 317.683594 354.695312 C 317.089844 355.800781 316.445312 356.878906 315.746094 357.921875 C 315.050781 358.96875 314.300781 359.976562 313.503906 360.945312 C 312.707031 361.917969 311.867188 362.847656 310.976562 363.734375 C 310.089844 364.625 309.160156 365.464844 308.1875 366.261719 C 307.214844 367.0625 306.207031 367.808594 305.164062 368.507812 C 304.121094 369.203125 303.042969 369.847656 301.933594 370.441406 C 300.828125 371.035156 299.691406 371.570312 298.53125 372.050781 C 297.371094 372.53125 296.191406 372.953125 294.988281 373.320312 C 293.785156 373.683594 292.570312 373.988281 291.335938 374.234375 C 290.105469 374.480469 288.863281 374.664062 287.613281 374.785156 C 286.363281 374.910156 285.109375 374.96875 283.851562 374.96875 C 282.597656 374.96875 281.34375 374.910156 280.09375 374.785156 C 278.84375 374.664062 277.601562 374.480469 276.371094 374.234375 C 275.136719 373.988281 273.921875 373.683594 272.71875 373.320312 C 271.515625 372.953125 270.335938 372.53125 269.175781 372.050781 C 268.011719 371.570312 266.878906 371.035156 265.769531 370.441406 C 264.664062 369.847656 263.585938 369.203125 262.542969 368.507812 C 261.496094 367.808594 260.488281 367.0625 259.519531 366.261719 C 258.546875 365.464844 257.617188 364.625 256.730469 363.734375 C 255.839844 362.847656 255 361.917969 254.203125 360.945312 C 253.40625 359.976562 252.65625 358.96875 251.960938 357.921875 C 251.261719 356.878906 250.617188 355.800781 250.023438 354.695312 C 249.433594 353.585938 248.894531 352.453125 248.414062 351.292969 C 247.933594 350.128906 247.511719 348.949219 247.144531 347.746094 C 246.78125 346.542969 246.476562 345.328125 246.230469 344.09375 C 245.988281 342.863281 245.800781 341.621094 245.679688 340.371094 C 245.554688 339.121094 245.496094 337.867188 245.496094 336.613281 C 245.496094 335.355469 245.554688 334.101562 245.679688 332.851562 C 245.800781 331.601562 245.988281 330.359375 246.230469 329.128906 C 246.476562 327.898438 246.78125 326.679688 247.144531 325.476562 C 247.511719 324.273438 247.933594 323.09375 248.414062 321.933594 C 248.894531 320.773438 249.433594 319.636719 250.023438 318.53125 C 250.617188 317.421875 251.261719 316.347656 251.960938 315.300781 C 252.65625 314.257812 253.40625 313.25 254.203125 312.277344 C 255 311.304688 255.839844 310.375 256.730469 309.488281 C 257.617188 308.601562 258.546875 307.757812 259.519531 306.960938 C 260.488281 306.164062 261.496094 305.417969 262.542969 304.71875 C 263.585938 304.019531 264.664062 303.375 265.769531 302.78125 C 266.878906 302.191406 268.011719 301.652344 269.175781 301.171875 C 270.335938 300.691406 271.515625 300.269531 272.71875 299.90625 C 273.921875 299.539062 275.136719 299.234375 276.371094 298.992188 C 277.601562 298.746094 278.84375 298.5625 280.09375 298.4375 C 281.34375 298.316406 282.597656 298.253906 283.851562 298.253906 C 285.109375 298.253906 286.363281 298.316406 287.613281 298.4375 C 288.863281 298.5625 290.105469 298.746094 291.335938 298.992188 C 292.570312 299.234375 293.785156 299.539062 294.988281 299.90625 C 296.191406 300.269531 297.371094 300.691406 298.53125 301.171875 C 299.691406 301.652344 300.828125 302.191406 301.933594 302.78125 C 303.042969 303.375 304.121094 304.019531 305.164062 304.71875 C 306.207031 305.417969 307.214844 306.164062 308.1875 306.960938 C 309.160156 307.757812 310.089844 308.601562 310.976562 309.488281 C 311.867188 310.375 312.707031 311.304688 313.503906 312.277344 C 314.300781 313.25 315.050781 314.257812 315.746094 315.300781 C 316.445312 316.347656 317.089844 317.421875 317.683594 318.53125 C 318.273438 319.636719 318.8125 320.773438 319.292969 321.933594 C 319.773438 323.09375 320.195312 324.273438 320.558594 325.476562 C 320.925781 326.679688 321.230469 327.898438 321.476562 329.128906 C 321.71875 330.359375 321.902344 331.601562 322.027344 332.851562 C 322.148438 334.101562 322.210938 335.355469 322.210938 336.613281 Z M 322.210938 336.613281 " fill-opacity="1" fill-rule="nonzero"/></g><g clip-path="url(#3aa76b98e6)"><path fill="#0866ff" d="M 168.777344 336.613281 C 168.777344 337.867188 168.714844 339.121094 168.59375 340.371094 C 168.46875 341.621094 168.285156 342.863281 168.039062 344.09375 C 167.796875 345.328125 167.492188 346.542969 167.125 347.746094 C 166.761719 348.949219 166.339844 350.128906 165.859375 351.292969 C 165.378906 352.453125 164.839844 353.585938 164.25 354.695312 C 163.65625 355.800781 163.011719 356.878906 162.3125 357.921875 C 161.613281 358.96875 160.867188 359.976562 160.070312 360.945312 C 159.273438 361.917969 158.429688 362.847656 157.542969 363.734375 C 156.65625 364.625 155.726562 365.464844 154.753906 366.261719 C 153.78125 367.0625 152.773438 367.808594 151.730469 368.507812 C 150.683594 369.203125 149.609375 369.847656 148.5 370.441406 C 147.394531 371.035156 146.257812 371.570312 145.097656 372.050781 C 143.9375 372.53125 142.757812 372.953125 141.554688 373.320312 C 140.351562 373.683594 139.132812 373.988281 137.902344 374.234375 C 136.671875 374.480469 135.429688 374.664062 134.179688 374.785156 C 132.929688 374.910156 131.675781 374.96875 130.417969 374.96875 C 129.164062 374.96875 127.910156 374.910156 126.660156 374.785156 C 125.410156 374.664062 124.167969 374.480469 122.9375 374.234375 C 121.703125 373.988281 120.488281 373.683594 119.285156 373.320312 C 118.082031 372.953125 116.902344 372.53125 115.738281 372.050781 C 114.578125 371.570312 113.445312 371.035156 112.335938 370.441406 C 111.230469 369.847656 110.152344 369.203125 109.109375 368.507812 C 108.0625 367.808594 107.054688 367.0625 106.085938 366.261719 C 105.113281 365.464844 104.183594 364.625 103.296875 363.734375 C 102.40625 362.847656 101.566406 361.917969 100.765625 360.945312 C 99.96875 359.976562 99.222656 358.96875 98.523438 357.921875 C 97.828125 356.878906 97.183594 355.800781 96.589844 354.695312 C 95.996094 353.585938 95.460938 352.453125 94.980469 351.292969 C 94.5 350.128906 94.078125 348.949219 93.710938 347.746094 C 93.347656 346.542969 93.042969 345.328125 92.796875 344.09375 C 92.550781 342.863281 92.367188 341.621094 92.246094 340.371094 C 92.121094 339.121094 92.058594 337.867188 92.058594 336.613281 C 92.058594 335.355469 92.121094 334.101562 92.246094 332.851562 C 92.367188 331.601562 92.550781 330.359375 92.796875 329.128906 C 93.042969 327.898438 93.347656 326.679688 93.710938 325.476562 C 94.078125 324.273438 94.5 323.09375 94.980469 321.933594 C 95.460938 320.773438 95.996094 319.636719 96.589844 318.53125 C 97.183594 317.421875 97.828125 316.347656 98.523438 315.300781 C 99.222656 314.257812 99.96875 313.25 100.765625 312.277344 C 101.566406 311.304688 102.40625 310.375 103.296875 309.488281 C 104.183594 308.601562 105.113281 307.757812 106.085938 306.960938 C 107.054688 306.164062 108.0625 305.417969 109.109375 304.71875 C 110.152344 304.019531 111.230469 303.375 112.335938 302.78125 C 113.445312 302.191406 114.578125 301.652344 115.738281 301.171875 C 116.902344 300.691406 118.082031 300.269531 119.285156 299.90625 C 120.488281 299.539062 121.703125 299.234375 122.9375 298.992188 C 124.167969 298.746094 125.410156 298.5625 126.660156 298.4375 C 127.910156 298.316406 129.164062 298.253906 130.417969 298.253906 C 131.675781 298.253906 132.929688 298.316406 134.179688 298.4375 C 135.429688 298.5625 136.671875 298.746094 137.902344 298.992188 C 139.132812 299.234375 140.351562 299.539062 141.554688 299.90625 C 142.757812 300.269531 143.9375 300.691406 145.097656 301.171875 C 146.257812 301.652344 147.394531 302.191406 148.5 302.78125 C 149.609375 303.375 150.683594 304.019531 151.730469 304.71875 C 152.773438 305.417969 153.78125 306.164062 154.753906 306.960938 C 155.726562 307.757812 156.65625 308.601562 157.542969 309.488281 C 158.429688 310.375 159.273438 311.304688 160.070312 312.277344 C 160.867188 313.25 161.613281 314.257812 162.3125 315.300781 C 163.011719 316.347656 163.65625 317.421875 164.25 318.53125 C 164.839844 319.636719 165.378906 320.773438 165.859375 321.933594 C 166.339844 323.09375 166.761719 324.273438 167.125 325.476562 C 167.492188 326.679688 167.796875 327.898438 168.039062 329.128906 C 168.285156 330.359375 168.46875 331.601562 168.59375 332.851562 C 168.714844 334.101562 168.777344 335.355469 168.777344 336.613281 Z M 168.777344 336.613281 " fill-opacity="1" fill-rule="nonzero"/></g><path fill="#0866ff" d="M 314.539062 282.910156 L 137.460938 282.910156 C 111.945312 282.910156 89.804688 264.757812 84.804688 239.75 L 47.410156 52.757812 L 7.671875 52.757812 C 3.4375 52.757812 0 49.320312 0 45.085938 C 0 40.851562 3.4375 37.414062 7.671875 37.414062 L 53.703125 37.414062 C 57.355469 37.414062 60.5 39.992188 61.21875 43.582031 L 99.855469 236.726562 C 103.429688 254.601562 119.234375 267.566406 137.460938 267.566406 L 314.539062 267.566406 C 318.773438 267.566406 322.210938 271.003906 322.210938 275.238281 C 322.210938 279.472656 318.773438 282.910156 314.539062 282.910156 Z M 314.539062 282.910156 " fill-opacity="1" fill-rule="nonzero"/><path fill="#0866ff" d="M 337.125 179.785156 C 334.839844 178.4375 332.03125 178.34375 329.683594 179.585938 C 315.339844 187.058594 299.917969 190.847656 283.851562 190.847656 C 228.863281 190.847656 184.183594 149.269531 184.257812 93.019531 C 184.257812 92.914062 184.335938 91.441406 184.351562 91.347656 C 184.414062 89.230469 183.597656 87.1875 182.109375 85.699219 C 180.609375 84.199219 178.535156 83.398438 176.449219 83.445312 L 68.816406 83.445312 C 66.574219 83.507812 64.472656 84.566406 63.078125 86.316406 C 61.664062 88.046875 61.082031 90.320312 61.511719 92.527344 L 84.527344 215.277344 C 85.203125 218.914062 88.363281 221.535156 92.058594 221.535156 L 302.789062 221.535156 C 322.089844 221.535156 338.460938 207.097656 340.839844 187.933594 C 340.886719 187.550781 340.886719 186.585938 340.886719 186.199219 C 340.824219 183.5625 339.398438 181.136719 337.125 179.785156 Z M 337.125 179.785156 " fill-opacity="1" fill-rule="nonzero"/><g clip-path="url(#781f8d24fc)"><path fill="#0866ff" d="M 283.851562 6.726562 C 237.316406 6.726562 199.464844 44.582031 199.464844 91.117188 C 199.464844 137.652344 237.316406 175.507812 283.851562 175.507812 C 330.390625 175.507812 368.242188 137.652344 368.242188 91.117188 C 368.242188 44.582031 330.390625 6.726562 283.851562 6.726562 Z M 335.316406 65.863281 L 273.941406 127.234375 C 272.4375 128.722656 270.472656 129.476562 268.511719 129.476562 C 266.546875 129.476562 264.582031 128.722656 263.078125 127.234375 L 232.390625 96.550781 C 229.398438 93.558594 229.398438 88.691406 232.390625 85.699219 C 235.382812 82.710938 240.246094 82.710938 243.238281 85.699219 L 268.511719 110.957031 L 324.453125 55.015625 C 327.445312 52.023438 332.308594 52.023438 335.300781 55.015625 C 338.292969 58.007812 338.308594 62.855469 335.316406 65.863281 Z M 335.316406 65.863281 " fill-opacity="1" fill-rule="nonzero"/></g><g clip-path="url(#88b58b14dc)"><g clip-path="url(#c856281231)"><path fill="#0866ff" d="M 191.589844 0 L 375 0 L 375 183.410156 L 191.589844 183.410156 Z M 191.589844 0 " fill-opacity="1" fill-rule="nonzero"/></g></g><g clip-path="url(#ac799bb347)"><g clip-path="url(#0e4c7e6808)"><path fill="#ffffff" d="M 198.320312 6.726562 L 368.273438 6.726562 L 368.273438 176.679688 L 198.320312 176.679688 Z M 198.320312 6.726562 " fill-opacity="1" fill-rule="nonzero"/></g></g><g clip-path="url(#68cbfd4b42)"><path fill="#0866ff" d="M 326.804688 53.53125 C 326.050781 53.554688 325.328125 53.71875 324.636719 54.023438 C 323.941406 54.328125 323.332031 54.75 322.804688 55.292969 L 262.917969 115.183594 L 243.757812 96.023438 C 243.488281 95.742188 243.195312 95.492188 242.878906 95.273438 C 242.558594 95.050781 242.222656 94.863281 241.867188 94.710938 C 241.511719 94.558594 241.144531 94.441406 240.765625 94.359375 C 240.386719 94.28125 240.003906 94.238281 239.617188 94.234375 C 239.230469 94.230469 238.847656 94.265625 238.46875 94.335938 C 238.085938 94.410156 237.71875 94.519531 237.359375 94.664062 C 237 94.8125 236.660156 94.992188 236.339844 95.207031 C 236.015625 95.417969 235.71875 95.664062 235.445312 95.9375 C 235.171875 96.210938 234.925781 96.507812 234.710938 96.832031 C 234.5 97.152344 234.316406 97.496094 234.171875 97.851562 C 234.027344 98.210938 233.914062 98.582031 233.84375 98.960938 C 233.769531 99.339844 233.738281 99.722656 233.742188 100.113281 C 233.746094 100.5 233.785156 100.882812 233.867188 101.261719 C 233.945312 101.636719 234.0625 102.003906 234.21875 102.359375 C 234.371094 102.714844 234.558594 103.054688 234.777344 103.371094 C 235 103.6875 235.25 103.980469 235.527344 104.25 L 258.804688 127.523438 C 259.074219 127.792969 259.367188 128.035156 259.683594 128.246094 C 260.003906 128.460938 260.335938 128.636719 260.691406 128.785156 C 261.042969 128.929688 261.40625 129.039062 261.78125 129.117188 C 262.15625 129.191406 262.535156 129.226562 262.917969 129.226562 C 263.296875 129.226562 263.675781 129.191406 264.050781 129.117188 C 264.425781 129.039062 264.789062 128.929688 265.144531 128.785156 C 265.496094 128.636719 265.832031 128.460938 266.148438 128.246094 C 266.464844 128.035156 266.761719 127.792969 267.03125 127.523438 L 331.035156 63.519531 C 331.453125 63.113281 331.804688 62.648438 332.085938 62.136719 C 332.367188 61.621094 332.566406 61.074219 332.683594 60.5 C 332.796875 59.925781 332.828125 59.347656 332.769531 58.765625 C 332.710938 58.179688 332.566406 57.621094 332.335938 57.078125 C 332.109375 56.539062 331.804688 56.046875 331.425781 55.597656 C 331.050781 55.148438 330.613281 54.765625 330.121094 54.449219 C 329.628906 54.132812 329.097656 53.898438 328.53125 53.738281 C 327.96875 53.582031 327.394531 53.515625 326.804688 53.53125 Z M 326.804688 53.53125 " fill-opacity="1" fill-rule="nonzero"/></g></svg>